%TF.GenerationSoftware,KiCad,Pcbnew,10.0.5*%
%TF.CreationDate,2026-08-02T14:30:57-04:00*%
%TF.ProjectId,blower-controller,626c6f77-6572-42d6-936f-6e74726f6c6c,rev?*%
%TF.SameCoordinates,Original*%
%TF.FileFunction,Paste,Top*%
%TF.FilePolarity,Positive*%
%FSLAX46Y46*%
G04 Gerber Fmt 4.6, Leading zero omitted, Abs format (unit mm)*
G04 Created by KiCad (PCBNEW 10.0.5) date 2026-08-02 14:30:57*
%MOMM*%
%LPD*%
G01*
G04 APERTURE LIST*
G04 Aperture macros list*
%AMRoundRect*
0 Rectangle with rounded corners*
0 $1 Rounding radius*
0 $2 $3 $4 $5 $6 $7 $8 $9 X,Y pos of 4 corners*
0 Add a 4 corners polygon primitive as box body*
4,1,4,$2,$3,$4,$5,$6,$7,$8,$9,$2,$3,0*
0 Add four circle primitives for the rounded corners*
1,1,$1+$1,$2,$3*
1,1,$1+$1,$4,$5*
1,1,$1+$1,$6,$7*
1,1,$1+$1,$8,$9*
0 Add four rect primitives between the rounded corners*
20,1,$1+$1,$2,$3,$4,$5,0*
20,1,$1+$1,$4,$5,$6,$7,0*
20,1,$1+$1,$6,$7,$8,$9,0*
20,1,$1+$1,$8,$9,$2,$3,0*%
G04 Aperture macros list end*
%ADD10RoundRect,0.250000X0.650000X-0.325000X0.650000X0.325000X-0.650000X0.325000X-0.650000X-0.325000X0*%
%ADD11RoundRect,0.250000X-0.262500X-0.450000X0.262500X-0.450000X0.262500X0.450000X-0.262500X0.450000X0*%
%ADD12RoundRect,0.250000X-0.325000X-1.100000X0.325000X-1.100000X0.325000X1.100000X-0.325000X1.100000X0*%
%ADD13RoundRect,0.225000X-0.225000X-0.250000X0.225000X-0.250000X0.225000X0.250000X-0.225000X0.250000X0*%
%ADD14RoundRect,0.112500X0.112500X-0.187500X0.112500X0.187500X-0.112500X0.187500X-0.112500X-0.187500X0*%
%ADD15R,0.700000X2.600000*%
%ADD16C,1.000000*%
%ADD17RoundRect,0.200000X-0.200000X-0.275000X0.200000X-0.275000X0.200000X0.275000X-0.200000X0.275000X0*%
%ADD18RoundRect,0.150000X-0.825000X-0.150000X0.825000X-0.150000X0.825000X0.150000X-0.825000X0.150000X0*%
%ADD19RoundRect,0.250000X1.100000X-0.325000X1.100000X0.325000X-1.100000X0.325000X-1.100000X-0.325000X0*%
%ADD20RoundRect,0.250000X0.262500X0.450000X-0.262500X0.450000X-0.262500X-0.450000X0.262500X-0.450000X0*%
%ADD21RoundRect,0.218750X-0.218750X-0.256250X0.218750X-0.256250X0.218750X0.256250X-0.218750X0.256250X0*%
%ADD22RoundRect,0.250000X1.425000X-0.362500X1.425000X0.362500X-1.425000X0.362500X-1.425000X-0.362500X0*%
%ADD23RoundRect,0.200000X0.200000X0.275000X-0.200000X0.275000X-0.200000X-0.275000X0.200000X-0.275000X0*%
%ADD24RoundRect,0.225000X0.250000X-0.225000X0.250000X0.225000X-0.250000X0.225000X-0.250000X-0.225000X0*%
%ADD25R,0.510000X0.600000*%
%ADD26R,3.940000X5.840000*%
%ADD27RoundRect,0.250000X-1.000000X-0.650000X1.000000X-0.650000X1.000000X0.650000X-1.000000X0.650000X0*%
%ADD28RoundRect,0.150000X-0.512500X-0.150000X0.512500X-0.150000X0.512500X0.150000X-0.512500X0.150000X0*%
%ADD29RoundRect,0.200000X0.275000X-0.200000X0.275000X0.200000X-0.275000X0.200000X-0.275000X-0.200000X0*%
%ADD30RoundRect,0.250000X1.000000X-1.400000X1.000000X1.400000X-1.000000X1.400000X-1.000000X-1.400000X0*%
%ADD31RoundRect,0.150000X-0.875000X-0.150000X0.875000X-0.150000X0.875000X0.150000X-0.875000X0.150000X0*%
%ADD32RoundRect,0.250000X-0.325000X-0.650000X0.325000X-0.650000X0.325000X0.650000X-0.325000X0.650000X0*%
%ADD33RoundRect,0.250000X2.375000X-2.025000X2.375000X2.025000X-2.375000X2.025000X-2.375000X-2.025000X0*%
%ADD34RoundRect,0.250000X0.300000X-2.050000X0.300000X2.050000X-0.300000X2.050000X-0.300000X-2.050000X0*%
%ADD35RoundRect,0.200000X-0.275000X0.200000X-0.275000X-0.200000X0.275000X-0.200000X0.275000X0.200000X0*%
%ADD36RoundRect,0.375000X-0.625000X-0.375000X0.625000X-0.375000X0.625000X0.375000X-0.625000X0.375000X0*%
%ADD37RoundRect,0.500000X-0.500000X-1.400000X0.500000X-1.400000X0.500000X1.400000X-0.500000X1.400000X0*%
%ADD38RoundRect,0.170000X-0.170000X-0.210000X0.170000X-0.210000X0.170000X0.210000X-0.170000X0.210000X0*%
%ADD39RoundRect,0.100000X-0.625000X-0.100000X0.625000X-0.100000X0.625000X0.100000X-0.625000X0.100000X0*%
G04 APERTURE END LIST*
D10*
%TO.C,C10*%
X14500000Y-26975000D03*
X14500000Y-24025000D03*
%TD*%
D11*
%TO.C,R4*%
X41087500Y-26300000D03*
X42912500Y-26300000D03*
%TD*%
D12*
%TO.C,C3*%
X52025000Y-30000000D03*
X54975000Y-30000000D03*
%TD*%
%TO.C,C20*%
X46025000Y-39000000D03*
X48975000Y-39000000D03*
%TD*%
D13*
%TO.C,C18*%
X27725000Y-42000000D03*
X29275000Y-42000000D03*
%TD*%
D14*
%TO.C,D3*%
X6000000Y-16550000D03*
X6000000Y-14450000D03*
%TD*%
D13*
%TO.C,C13*%
X14225000Y-31500000D03*
X15775000Y-31500000D03*
%TD*%
D15*
%TO.C,Q1*%
X19800000Y-26250000D03*
X21000000Y-26250000D03*
X22200000Y-26250000D03*
X23400000Y-26250000D03*
X24600000Y-26250000D03*
X25800000Y-26250000D03*
X27000000Y-26250000D03*
X28200000Y-26250000D03*
D16*
X19800000Y-21070000D03*
X21000000Y-21070000D03*
X22200000Y-21070000D03*
X23400000Y-21070000D03*
X24600000Y-21070000D03*
X25800000Y-21070000D03*
X27000000Y-21070000D03*
X28200000Y-21070000D03*
X19800000Y-19870000D03*
X21000000Y-19870000D03*
X22200000Y-19870000D03*
X23400000Y-19870000D03*
X24600000Y-19870000D03*
X25800000Y-19870000D03*
X27000000Y-19870000D03*
X28200000Y-19870000D03*
X21000000Y-18670000D03*
X22200000Y-18670000D03*
X23400000Y-18670000D03*
X24600000Y-18670000D03*
X25800000Y-18670000D03*
X27000000Y-18670000D03*
X21000000Y-17470000D03*
X22200000Y-17470000D03*
X23400000Y-17470000D03*
X24600000Y-17470000D03*
X25800000Y-17470000D03*
X27000000Y-17470000D03*
X21000000Y-16270000D03*
X22200000Y-16270000D03*
X23400000Y-16270000D03*
X24600000Y-16270000D03*
X25800000Y-16270000D03*
X27000000Y-16270000D03*
X19800000Y-15070000D03*
X21000000Y-15070000D03*
X22200000Y-15070000D03*
X23400000Y-15070000D03*
X24600000Y-15070000D03*
X25800000Y-15070000D03*
X27000000Y-15070000D03*
X28200000Y-15070000D03*
%TD*%
D17*
%TO.C,R11*%
X12175000Y-48500000D03*
X13825000Y-48500000D03*
%TD*%
D18*
%TO.C,U2*%
X22025000Y-32095000D03*
X22025000Y-33365000D03*
X22025000Y-34635000D03*
X22025000Y-35905000D03*
X26975000Y-35905000D03*
X26975000Y-34635000D03*
X26975000Y-33365000D03*
X26975000Y-32095000D03*
%TD*%
D13*
%TO.C,C8*%
X27225000Y-38000000D03*
X28775000Y-38000000D03*
%TD*%
D19*
%TO.C,C9*%
X8500000Y-21275000D03*
X8500000Y-18325000D03*
%TD*%
D20*
%TO.C,R3*%
X19712500Y-29000000D03*
X17887500Y-29000000D03*
%TD*%
D12*
%TO.C,C4*%
X52025000Y-34000000D03*
X54975000Y-34000000D03*
%TD*%
D21*
%TO.C,LED1*%
X16212500Y-48500000D03*
X17787500Y-48500000D03*
%TD*%
D22*
%TO.C,R16*%
X46000000Y-35962500D03*
X46000000Y-30037500D03*
%TD*%
D23*
%TO.C,R13*%
X42825000Y-29200000D03*
X41175000Y-29200000D03*
%TD*%
D17*
%TO.C,R6*%
X7675000Y-53000000D03*
X9325000Y-53000000D03*
%TD*%
D24*
%TO.C,C12*%
X5500000Y-32575000D03*
X5500000Y-31025000D03*
%TD*%
D25*
%TO.C,RS1*%
X30210000Y-38410000D03*
D26*
X31925000Y-35210000D03*
X41075000Y-35210000D03*
D25*
X42790000Y-38410000D03*
%TD*%
D27*
%TO.C,D4*%
X11500000Y-15500000D03*
X15500000Y-15500000D03*
%TD*%
D17*
%TO.C,R12*%
X17675000Y-30900000D03*
X19325000Y-30900000D03*
%TD*%
%TO.C,R1*%
X13175000Y-10500000D03*
X14825000Y-10500000D03*
%TD*%
%TO.C,R9*%
X4175000Y-42000000D03*
X5825000Y-42000000D03*
%TD*%
D12*
%TO.C,C5*%
X52025000Y-38000000D03*
X54975000Y-38000000D03*
%TD*%
D28*
%TO.C,U5*%
X35362500Y-41050000D03*
X35362500Y-42000000D03*
X35362500Y-42950000D03*
X37637500Y-42950000D03*
X37637500Y-41050000D03*
%TD*%
D29*
%TO.C,R7*%
X3800000Y-35825000D03*
X3800000Y-34175000D03*
%TD*%
D24*
%TO.C,C15*%
X3800000Y-39275000D03*
X3800000Y-37725000D03*
%TD*%
D13*
%TO.C,C19*%
X39725000Y-42000000D03*
X41275000Y-42000000D03*
%TD*%
D29*
%TO.C,R2*%
X3500000Y-32825000D03*
X3500000Y-31175000D03*
%TD*%
D17*
%TO.C,R10*%
X31175000Y-42000000D03*
X32825000Y-42000000D03*
%TD*%
D30*
%TO.C,D1*%
X58100000Y-17000000D03*
X64900000Y-17000000D03*
%TD*%
D15*
%TO.C,Q2*%
X44800000Y-26250000D03*
X46000000Y-26250000D03*
X47200000Y-26250000D03*
X48400000Y-26250000D03*
X49600000Y-26250000D03*
X50800000Y-26250000D03*
X52000000Y-26250000D03*
X53200000Y-26250000D03*
D16*
X44800000Y-21070000D03*
X46000000Y-21070000D03*
X47200000Y-21070000D03*
X48400000Y-21070000D03*
X49600000Y-21070000D03*
X50800000Y-21070000D03*
X52000000Y-21070000D03*
X53200000Y-21070000D03*
X44800000Y-19870000D03*
X46000000Y-19870000D03*
X47200000Y-19870000D03*
X48400000Y-19870000D03*
X49600000Y-19870000D03*
X50800000Y-19870000D03*
X52000000Y-19870000D03*
X53200000Y-19870000D03*
X46000000Y-18670000D03*
X47200000Y-18670000D03*
X48400000Y-18670000D03*
X49600000Y-18670000D03*
X50800000Y-18670000D03*
X52000000Y-18670000D03*
X46000000Y-17470000D03*
X47200000Y-17470000D03*
X48400000Y-17470000D03*
X49600000Y-17470000D03*
X50800000Y-17470000D03*
X52000000Y-17470000D03*
X46000000Y-16270000D03*
X47200000Y-16270000D03*
X48400000Y-16270000D03*
X49600000Y-16270000D03*
X50800000Y-16270000D03*
X52000000Y-16270000D03*
X44800000Y-15070000D03*
X46000000Y-15070000D03*
X47200000Y-15070000D03*
X48400000Y-15070000D03*
X49600000Y-15070000D03*
X50800000Y-15070000D03*
X52000000Y-15070000D03*
X53200000Y-15070000D03*
%TD*%
D13*
%TO.C,C14*%
X10725000Y-31500000D03*
X12275000Y-31500000D03*
%TD*%
%TO.C,C16*%
X7225000Y-31500000D03*
X8775000Y-31500000D03*
%TD*%
%TO.C,C6*%
X52725000Y-40500000D03*
X54275000Y-40500000D03*
%TD*%
D29*
%TO.C,R8*%
X8500000Y-16325000D03*
X8500000Y-14675000D03*
%TD*%
D31*
%TO.C,U1*%
X8550000Y-34285000D03*
X8550000Y-35555000D03*
X8550000Y-36825000D03*
X8550000Y-38095000D03*
X8550000Y-39365000D03*
X8550000Y-40635000D03*
X8550000Y-41905000D03*
X8550000Y-43175000D03*
X8550000Y-44445000D03*
X8550000Y-45715000D03*
X17850000Y-45715000D03*
X17850000Y-44445000D03*
X17850000Y-43175000D03*
X17850000Y-41905000D03*
X17850000Y-40635000D03*
X17850000Y-39365000D03*
X17850000Y-38095000D03*
X17850000Y-36825000D03*
X17850000Y-35555000D03*
X17850000Y-34285000D03*
%TD*%
D29*
%TO.C,R15*%
X12300000Y-24825000D03*
X12300000Y-23175000D03*
%TD*%
D13*
%TO.C,C11*%
X12725000Y-28800000D03*
X14275000Y-28800000D03*
%TD*%
D32*
%TO.C,C7*%
X22525000Y-39500000D03*
X25475000Y-39500000D03*
%TD*%
D33*
%TO.C,D2*%
X33725000Y-11425000D03*
X39275000Y-11425000D03*
X33725000Y-6575000D03*
X39275000Y-6575000D03*
D34*
X33960000Y-18150000D03*
X36500000Y-18150000D03*
X39040000Y-18150000D03*
%TD*%
D35*
%TO.C,R14*%
X17400000Y-24175000D03*
X17400000Y-25825000D03*
%TD*%
D36*
%TO.C,U4*%
X3850000Y-24200000D03*
X3850000Y-26500000D03*
D37*
X10150000Y-26500000D03*
D36*
X3850000Y-28800000D03*
%TD*%
D13*
%TO.C,C17*%
X4225000Y-44000000D03*
X5775000Y-44000000D03*
%TD*%
D38*
%TO.C,U3*%
X13080000Y-20030000D03*
X13080000Y-20970000D03*
X13920000Y-20030000D03*
X13920000Y-20970000D03*
D39*
X11350000Y-19525000D03*
X11350000Y-20175000D03*
X11350000Y-20825000D03*
X11350000Y-21475000D03*
X15650000Y-21475000D03*
X15650000Y-20825000D03*
X15650000Y-20175000D03*
X15650000Y-19525000D03*
%TD*%
D23*
%TO.C,TH1*%
X13325000Y-13000000D03*
X11675000Y-13000000D03*
%TD*%
M02*
