%TF.GenerationSoftware,KiCad,Pcbnew,10.0.5*%
%TF.CreationDate,2026-08-02T14:30:57-04:00*%
%TF.ProjectId,blower-controller,626c6f77-6572-42d6-936f-6e74726f6c6c,rev?*%
%TF.SameCoordinates,Original*%
%TF.FileFunction,Legend,Top*%
%TF.FilePolarity,Positive*%
%FSLAX46Y46*%
G04 Gerber Fmt 4.6, Leading zero omitted, Abs format (unit mm)*
G04 Created by KiCad (PCBNEW 10.0.5) date 2026-08-02 14:30:57*
%MOMM*%
%LPD*%
G01*
G04 APERTURE LIST*
%ADD10C,0.120000*%
%ADD11C,0.130000*%
%ADD12C,0.150000*%
%ADD13C,0.200000*%
G04 APERTURE END LIST*
D10*
X2580952Y-8863855D02*
X2314285Y-8482902D01*
X2123809Y-8863855D02*
X2123809Y-8063855D01*
X2123809Y-8063855D02*
X2428571Y-8063855D01*
X2428571Y-8063855D02*
X2504761Y-8101950D01*
X2504761Y-8101950D02*
X2542856Y-8140045D01*
X2542856Y-8140045D02*
X2580952Y-8216236D01*
X2580952Y-8216236D02*
X2580952Y-8330521D01*
X2580952Y-8330521D02*
X2542856Y-8406712D01*
X2542856Y-8406712D02*
X2504761Y-8444807D01*
X2504761Y-8444807D02*
X2428571Y-8482902D01*
X2428571Y-8482902D02*
X2123809Y-8482902D01*
X2923809Y-8444807D02*
X3190475Y-8444807D01*
X3304761Y-8863855D02*
X2923809Y-8863855D01*
X2923809Y-8863855D02*
X2923809Y-8063855D01*
X2923809Y-8063855D02*
X3304761Y-8063855D01*
X3533333Y-8063855D02*
X3990476Y-8063855D01*
X3761904Y-8863855D02*
X3761904Y-8063855D01*
X1780952Y-18563855D02*
X2238095Y-18563855D01*
X2009523Y-19363855D02*
X2009523Y-18563855D01*
X2961905Y-19363855D02*
X2695238Y-18982902D01*
X2504762Y-19363855D02*
X2504762Y-18563855D01*
X2504762Y-18563855D02*
X2809524Y-18563855D01*
X2809524Y-18563855D02*
X2885714Y-18601950D01*
X2885714Y-18601950D02*
X2923809Y-18640045D01*
X2923809Y-18640045D02*
X2961905Y-18716236D01*
X2961905Y-18716236D02*
X2961905Y-18830521D01*
X2961905Y-18830521D02*
X2923809Y-18906712D01*
X2923809Y-18906712D02*
X2885714Y-18944807D01*
X2885714Y-18944807D02*
X2809524Y-18982902D01*
X2809524Y-18982902D02*
X2504762Y-18982902D01*
X3304762Y-19363855D02*
X3304762Y-18563855D01*
X4104761Y-18601950D02*
X4028571Y-18563855D01*
X4028571Y-18563855D02*
X3914285Y-18563855D01*
X3914285Y-18563855D02*
X3799999Y-18601950D01*
X3799999Y-18601950D02*
X3723809Y-18678140D01*
X3723809Y-18678140D02*
X3685714Y-18754331D01*
X3685714Y-18754331D02*
X3647618Y-18906712D01*
X3647618Y-18906712D02*
X3647618Y-19020998D01*
X3647618Y-19020998D02*
X3685714Y-19173379D01*
X3685714Y-19173379D02*
X3723809Y-19249569D01*
X3723809Y-19249569D02*
X3799999Y-19325760D01*
X3799999Y-19325760D02*
X3914285Y-19363855D01*
X3914285Y-19363855D02*
X3990476Y-19363855D01*
X3990476Y-19363855D02*
X4104761Y-19325760D01*
X4104761Y-19325760D02*
X4142857Y-19287664D01*
X4142857Y-19287664D02*
X4142857Y-19020998D01*
X4142857Y-19020998D02*
X3990476Y-19020998D01*
X24109524Y-43563855D02*
X23728572Y-43563855D01*
X23728572Y-43563855D02*
X23690476Y-43944807D01*
X23690476Y-43944807D02*
X23728572Y-43906712D01*
X23728572Y-43906712D02*
X23804762Y-43868617D01*
X23804762Y-43868617D02*
X23995238Y-43868617D01*
X23995238Y-43868617D02*
X24071429Y-43906712D01*
X24071429Y-43906712D02*
X24109524Y-43944807D01*
X24109524Y-43944807D02*
X24147619Y-44020998D01*
X24147619Y-44020998D02*
X24147619Y-44211474D01*
X24147619Y-44211474D02*
X24109524Y-44287664D01*
X24109524Y-44287664D02*
X24071429Y-44325760D01*
X24071429Y-44325760D02*
X23995238Y-44363855D01*
X23995238Y-44363855D02*
X23804762Y-44363855D01*
X23804762Y-44363855D02*
X23728572Y-44325760D01*
X23728572Y-44325760D02*
X23690476Y-44287664D01*
X24376191Y-43563855D02*
X24642858Y-44363855D01*
X24642858Y-44363855D02*
X24909524Y-43563855D01*
X25785715Y-43563855D02*
X25785715Y-44211474D01*
X25785715Y-44211474D02*
X25823810Y-44287664D01*
X25823810Y-44287664D02*
X25861905Y-44325760D01*
X25861905Y-44325760D02*
X25938096Y-44363855D01*
X25938096Y-44363855D02*
X26090477Y-44363855D01*
X26090477Y-44363855D02*
X26166667Y-44325760D01*
X26166667Y-44325760D02*
X26204762Y-44287664D01*
X26204762Y-44287664D02*
X26242858Y-44211474D01*
X26242858Y-44211474D02*
X26242858Y-43563855D01*
X26623810Y-44363855D02*
X26623810Y-43563855D01*
X26623810Y-43563855D02*
X26928572Y-43563855D01*
X26928572Y-43563855D02*
X27004762Y-43601950D01*
X27004762Y-43601950D02*
X27042857Y-43640045D01*
X27042857Y-43640045D02*
X27080953Y-43716236D01*
X27080953Y-43716236D02*
X27080953Y-43830521D01*
X27080953Y-43830521D02*
X27042857Y-43906712D01*
X27042857Y-43906712D02*
X27004762Y-43944807D01*
X27004762Y-43944807D02*
X26928572Y-43982902D01*
X26928572Y-43982902D02*
X26623810Y-43982902D01*
X27423810Y-44363855D02*
X27423810Y-43563855D01*
X27423810Y-43563855D02*
X27614286Y-43563855D01*
X27614286Y-43563855D02*
X27728572Y-43601950D01*
X27728572Y-43601950D02*
X27804762Y-43678140D01*
X27804762Y-43678140D02*
X27842857Y-43754331D01*
X27842857Y-43754331D02*
X27880953Y-43906712D01*
X27880953Y-43906712D02*
X27880953Y-44020998D01*
X27880953Y-44020998D02*
X27842857Y-44173379D01*
X27842857Y-44173379D02*
X27804762Y-44249569D01*
X27804762Y-44249569D02*
X27728572Y-44325760D01*
X27728572Y-44325760D02*
X27614286Y-44363855D01*
X27614286Y-44363855D02*
X27423810Y-44363855D01*
X28223810Y-44363855D02*
X28223810Y-43563855D01*
X29633333Y-43601950D02*
X29557143Y-43563855D01*
X29557143Y-43563855D02*
X29442857Y-43563855D01*
X29442857Y-43563855D02*
X29328571Y-43601950D01*
X29328571Y-43601950D02*
X29252381Y-43678140D01*
X29252381Y-43678140D02*
X29214286Y-43754331D01*
X29214286Y-43754331D02*
X29176190Y-43906712D01*
X29176190Y-43906712D02*
X29176190Y-44020998D01*
X29176190Y-44020998D02*
X29214286Y-44173379D01*
X29214286Y-44173379D02*
X29252381Y-44249569D01*
X29252381Y-44249569D02*
X29328571Y-44325760D01*
X29328571Y-44325760D02*
X29442857Y-44363855D01*
X29442857Y-44363855D02*
X29519048Y-44363855D01*
X29519048Y-44363855D02*
X29633333Y-44325760D01*
X29633333Y-44325760D02*
X29671429Y-44287664D01*
X29671429Y-44287664D02*
X29671429Y-44020998D01*
X29671429Y-44020998D02*
X29519048Y-44020998D01*
X30014286Y-44363855D02*
X30014286Y-43563855D01*
X30014286Y-43563855D02*
X30471429Y-44363855D01*
X30471429Y-44363855D02*
X30471429Y-43563855D01*
X30852381Y-44363855D02*
X30852381Y-43563855D01*
X30852381Y-43563855D02*
X31042857Y-43563855D01*
X31042857Y-43563855D02*
X31157143Y-43601950D01*
X31157143Y-43601950D02*
X31233333Y-43678140D01*
X31233333Y-43678140D02*
X31271428Y-43754331D01*
X31271428Y-43754331D02*
X31309524Y-43906712D01*
X31309524Y-43906712D02*
X31309524Y-44020998D01*
X31309524Y-44020998D02*
X31271428Y-44173379D01*
X31271428Y-44173379D02*
X31233333Y-44249569D01*
X31233333Y-44249569D02*
X31157143Y-44325760D01*
X31157143Y-44325760D02*
X31042857Y-44363855D01*
X31042857Y-44363855D02*
X30852381Y-44363855D01*
X63980952Y-10063855D02*
X64514286Y-10063855D01*
X64514286Y-10063855D02*
X63980952Y-10863855D01*
X63980952Y-10863855D02*
X64514286Y-10863855D01*
X64819048Y-10863855D02*
X64819048Y-10063855D01*
X65200000Y-10863855D02*
X65200000Y-10063855D01*
X65200000Y-10063855D02*
X65504762Y-10063855D01*
X65504762Y-10063855D02*
X65580952Y-10101950D01*
X65580952Y-10101950D02*
X65619047Y-10140045D01*
X65619047Y-10140045D02*
X65657143Y-10216236D01*
X65657143Y-10216236D02*
X65657143Y-10330521D01*
X65657143Y-10330521D02*
X65619047Y-10406712D01*
X65619047Y-10406712D02*
X65580952Y-10444807D01*
X65580952Y-10444807D02*
X65504762Y-10482902D01*
X65504762Y-10482902D02*
X65200000Y-10482902D01*
X66495238Y-10063855D02*
X66952381Y-10063855D01*
X66723809Y-10863855D02*
X66723809Y-10063855D01*
X67219048Y-10863855D02*
X67219048Y-10063855D01*
X67600000Y-10444807D02*
X67866666Y-10444807D01*
X67980952Y-10863855D02*
X67600000Y-10863855D01*
X67600000Y-10863855D02*
X67600000Y-10063855D01*
X67600000Y-10063855D02*
X67980952Y-10063855D01*
D11*
X16663095Y-58886467D02*
X16663095Y-58036467D01*
X16663095Y-58036467D02*
X17148810Y-58886467D01*
X17148810Y-58886467D02*
X17148810Y-58036467D01*
X17715476Y-58036467D02*
X17877381Y-58036467D01*
X17877381Y-58036467D02*
X17958333Y-58076943D01*
X17958333Y-58076943D02*
X18039286Y-58157895D01*
X18039286Y-58157895D02*
X18079762Y-58319800D01*
X18079762Y-58319800D02*
X18079762Y-58603133D01*
X18079762Y-58603133D02*
X18039286Y-58765038D01*
X18039286Y-58765038D02*
X17958333Y-58845991D01*
X17958333Y-58845991D02*
X17877381Y-58886467D01*
X17877381Y-58886467D02*
X17715476Y-58886467D01*
X17715476Y-58886467D02*
X17634524Y-58845991D01*
X17634524Y-58845991D02*
X17553571Y-58765038D01*
X17553571Y-58765038D02*
X17513095Y-58603133D01*
X17513095Y-58603133D02*
X17513095Y-58319800D01*
X17513095Y-58319800D02*
X17553571Y-58157895D01*
X17553571Y-58157895D02*
X17634524Y-58076943D01*
X17634524Y-58076943D02*
X17715476Y-58036467D01*
X18322619Y-58036467D02*
X18808333Y-58036467D01*
X18565476Y-58886467D02*
X18565476Y-58036467D01*
X19698809Y-58643610D02*
X20103571Y-58643610D01*
X19617857Y-58886467D02*
X19901190Y-58036467D01*
X19901190Y-58036467D02*
X20184524Y-58886467D01*
X20467856Y-58886467D02*
X20467856Y-58036467D01*
X20467856Y-58036467D02*
X20791666Y-58036467D01*
X20791666Y-58036467D02*
X20872618Y-58076943D01*
X20872618Y-58076943D02*
X20913095Y-58117419D01*
X20913095Y-58117419D02*
X20953571Y-58198371D01*
X20953571Y-58198371D02*
X20953571Y-58319800D01*
X20953571Y-58319800D02*
X20913095Y-58400752D01*
X20913095Y-58400752D02*
X20872618Y-58441229D01*
X20872618Y-58441229D02*
X20791666Y-58481705D01*
X20791666Y-58481705D02*
X20467856Y-58481705D01*
X21317856Y-58886467D02*
X21317856Y-58036467D01*
X21317856Y-58036467D02*
X21641666Y-58036467D01*
X21641666Y-58036467D02*
X21722618Y-58076943D01*
X21722618Y-58076943D02*
X21763095Y-58117419D01*
X21763095Y-58117419D02*
X21803571Y-58198371D01*
X21803571Y-58198371D02*
X21803571Y-58319800D01*
X21803571Y-58319800D02*
X21763095Y-58400752D01*
X21763095Y-58400752D02*
X21722618Y-58441229D01*
X21722618Y-58441229D02*
X21641666Y-58481705D01*
X21641666Y-58481705D02*
X21317856Y-58481705D01*
X22653571Y-58886467D02*
X22370237Y-58481705D01*
X22167856Y-58886467D02*
X22167856Y-58036467D01*
X22167856Y-58036467D02*
X22491666Y-58036467D01*
X22491666Y-58036467D02*
X22572618Y-58076943D01*
X22572618Y-58076943D02*
X22613095Y-58117419D01*
X22613095Y-58117419D02*
X22653571Y-58198371D01*
X22653571Y-58198371D02*
X22653571Y-58319800D01*
X22653571Y-58319800D02*
X22613095Y-58400752D01*
X22613095Y-58400752D02*
X22572618Y-58441229D01*
X22572618Y-58441229D02*
X22491666Y-58481705D01*
X22491666Y-58481705D02*
X22167856Y-58481705D01*
X23179761Y-58036467D02*
X23341666Y-58036467D01*
X23341666Y-58036467D02*
X23422618Y-58076943D01*
X23422618Y-58076943D02*
X23503571Y-58157895D01*
X23503571Y-58157895D02*
X23544047Y-58319800D01*
X23544047Y-58319800D02*
X23544047Y-58603133D01*
X23544047Y-58603133D02*
X23503571Y-58765038D01*
X23503571Y-58765038D02*
X23422618Y-58845991D01*
X23422618Y-58845991D02*
X23341666Y-58886467D01*
X23341666Y-58886467D02*
X23179761Y-58886467D01*
X23179761Y-58886467D02*
X23098809Y-58845991D01*
X23098809Y-58845991D02*
X23017856Y-58765038D01*
X23017856Y-58765038D02*
X22977380Y-58603133D01*
X22977380Y-58603133D02*
X22977380Y-58319800D01*
X22977380Y-58319800D02*
X23017856Y-58157895D01*
X23017856Y-58157895D02*
X23098809Y-58076943D01*
X23098809Y-58076943D02*
X23179761Y-58036467D01*
X23786904Y-58036467D02*
X24070237Y-58886467D01*
X24070237Y-58886467D02*
X24353571Y-58036467D01*
X24636903Y-58441229D02*
X24920237Y-58441229D01*
X25041665Y-58886467D02*
X24636903Y-58886467D01*
X24636903Y-58886467D02*
X24636903Y-58036467D01*
X24636903Y-58036467D02*
X25041665Y-58036467D01*
X25405951Y-58886467D02*
X25405951Y-58036467D01*
X25405951Y-58036467D02*
X25608332Y-58036467D01*
X25608332Y-58036467D02*
X25729761Y-58076943D01*
X25729761Y-58076943D02*
X25810713Y-58157895D01*
X25810713Y-58157895D02*
X25851190Y-58238848D01*
X25851190Y-58238848D02*
X25891666Y-58400752D01*
X25891666Y-58400752D02*
X25891666Y-58522181D01*
X25891666Y-58522181D02*
X25851190Y-58684086D01*
X25851190Y-58684086D02*
X25810713Y-58765038D01*
X25810713Y-58765038D02*
X25729761Y-58845991D01*
X25729761Y-58845991D02*
X25608332Y-58886467D01*
X25608332Y-58886467D02*
X25405951Y-58886467D01*
X26782142Y-58036467D02*
X27267856Y-58036467D01*
X27024999Y-58886467D02*
X27024999Y-58036467D01*
X27713094Y-58036467D02*
X27874999Y-58036467D01*
X27874999Y-58036467D02*
X27955951Y-58076943D01*
X27955951Y-58076943D02*
X28036904Y-58157895D01*
X28036904Y-58157895D02*
X28077380Y-58319800D01*
X28077380Y-58319800D02*
X28077380Y-58603133D01*
X28077380Y-58603133D02*
X28036904Y-58765038D01*
X28036904Y-58765038D02*
X27955951Y-58845991D01*
X27955951Y-58845991D02*
X27874999Y-58886467D01*
X27874999Y-58886467D02*
X27713094Y-58886467D01*
X27713094Y-58886467D02*
X27632142Y-58845991D01*
X27632142Y-58845991D02*
X27551189Y-58765038D01*
X27551189Y-58765038D02*
X27510713Y-58603133D01*
X27510713Y-58603133D02*
X27510713Y-58319800D01*
X27510713Y-58319800D02*
X27551189Y-58157895D01*
X27551189Y-58157895D02*
X27632142Y-58076943D01*
X27632142Y-58076943D02*
X27713094Y-58036467D01*
X29251189Y-58036467D02*
X29413094Y-58036467D01*
X29413094Y-58036467D02*
X29494046Y-58076943D01*
X29494046Y-58076943D02*
X29574999Y-58157895D01*
X29574999Y-58157895D02*
X29615475Y-58319800D01*
X29615475Y-58319800D02*
X29615475Y-58603133D01*
X29615475Y-58603133D02*
X29574999Y-58765038D01*
X29574999Y-58765038D02*
X29494046Y-58845991D01*
X29494046Y-58845991D02*
X29413094Y-58886467D01*
X29413094Y-58886467D02*
X29251189Y-58886467D01*
X29251189Y-58886467D02*
X29170237Y-58845991D01*
X29170237Y-58845991D02*
X29089284Y-58765038D01*
X29089284Y-58765038D02*
X29048808Y-58603133D01*
X29048808Y-58603133D02*
X29048808Y-58319800D01*
X29048808Y-58319800D02*
X29089284Y-58157895D01*
X29089284Y-58157895D02*
X29170237Y-58076943D01*
X29170237Y-58076943D02*
X29251189Y-58036467D01*
X30465475Y-58886467D02*
X30182141Y-58481705D01*
X29979760Y-58886467D02*
X29979760Y-58036467D01*
X29979760Y-58036467D02*
X30303570Y-58036467D01*
X30303570Y-58036467D02*
X30384522Y-58076943D01*
X30384522Y-58076943D02*
X30424999Y-58117419D01*
X30424999Y-58117419D02*
X30465475Y-58198371D01*
X30465475Y-58198371D02*
X30465475Y-58319800D01*
X30465475Y-58319800D02*
X30424999Y-58400752D01*
X30424999Y-58400752D02*
X30384522Y-58441229D01*
X30384522Y-58441229D02*
X30303570Y-58481705D01*
X30303570Y-58481705D02*
X29979760Y-58481705D01*
X30829760Y-58886467D02*
X30829760Y-58036467D01*
X30829760Y-58036467D02*
X31032141Y-58036467D01*
X31032141Y-58036467D02*
X31153570Y-58076943D01*
X31153570Y-58076943D02*
X31234522Y-58157895D01*
X31234522Y-58157895D02*
X31274999Y-58238848D01*
X31274999Y-58238848D02*
X31315475Y-58400752D01*
X31315475Y-58400752D02*
X31315475Y-58522181D01*
X31315475Y-58522181D02*
X31274999Y-58684086D01*
X31274999Y-58684086D02*
X31234522Y-58765038D01*
X31234522Y-58765038D02*
X31153570Y-58845991D01*
X31153570Y-58845991D02*
X31032141Y-58886467D01*
X31032141Y-58886467D02*
X30829760Y-58886467D01*
X31679760Y-58441229D02*
X31963094Y-58441229D01*
X32084522Y-58886467D02*
X31679760Y-58886467D01*
X31679760Y-58886467D02*
X31679760Y-58036467D01*
X31679760Y-58036467D02*
X32084522Y-58036467D01*
X32934523Y-58886467D02*
X32651189Y-58481705D01*
X32448808Y-58886467D02*
X32448808Y-58036467D01*
X32448808Y-58036467D02*
X32772618Y-58036467D01*
X32772618Y-58036467D02*
X32853570Y-58076943D01*
X32853570Y-58076943D02*
X32894047Y-58117419D01*
X32894047Y-58117419D02*
X32934523Y-58198371D01*
X32934523Y-58198371D02*
X32934523Y-58319800D01*
X32934523Y-58319800D02*
X32894047Y-58400752D01*
X32894047Y-58400752D02*
X32853570Y-58441229D01*
X32853570Y-58441229D02*
X32772618Y-58481705D01*
X32772618Y-58481705D02*
X32448808Y-58481705D01*
X33946427Y-58562657D02*
X34594047Y-58562657D01*
X35646427Y-58441229D02*
X35929761Y-58441229D01*
X36051189Y-58886467D02*
X35646427Y-58886467D01*
X35646427Y-58886467D02*
X35646427Y-58036467D01*
X35646427Y-58036467D02*
X36051189Y-58036467D01*
X36334523Y-58036467D02*
X36901190Y-58886467D01*
X36901190Y-58036467D02*
X36334523Y-58886467D01*
X37103571Y-58036467D02*
X37589285Y-58036467D01*
X37346428Y-58886467D02*
X37346428Y-58036467D01*
X37872618Y-58441229D02*
X38155952Y-58441229D01*
X38277380Y-58886467D02*
X37872618Y-58886467D01*
X37872618Y-58886467D02*
X37872618Y-58036467D01*
X37872618Y-58036467D02*
X38277380Y-58036467D01*
X39127381Y-58886467D02*
X38844047Y-58481705D01*
X38641666Y-58886467D02*
X38641666Y-58036467D01*
X38641666Y-58036467D02*
X38965476Y-58036467D01*
X38965476Y-58036467D02*
X39046428Y-58076943D01*
X39046428Y-58076943D02*
X39086905Y-58117419D01*
X39086905Y-58117419D02*
X39127381Y-58198371D01*
X39127381Y-58198371D02*
X39127381Y-58319800D01*
X39127381Y-58319800D02*
X39086905Y-58400752D01*
X39086905Y-58400752D02*
X39046428Y-58441229D01*
X39046428Y-58441229D02*
X38965476Y-58481705D01*
X38965476Y-58481705D02*
X38641666Y-58481705D01*
X39491666Y-58886467D02*
X39491666Y-58036467D01*
X39491666Y-58036467D02*
X39977381Y-58886467D01*
X39977381Y-58886467D02*
X39977381Y-58036467D01*
X40341666Y-58643610D02*
X40746428Y-58643610D01*
X40260714Y-58886467D02*
X40544047Y-58036467D01*
X40544047Y-58036467D02*
X40827381Y-58886467D01*
X41515475Y-58886467D02*
X41110713Y-58886467D01*
X41110713Y-58886467D02*
X41110713Y-58036467D01*
X42729761Y-58441229D02*
X42446427Y-58441229D01*
X42446427Y-58886467D02*
X42446427Y-58036467D01*
X42446427Y-58036467D02*
X42851189Y-58036467D01*
X43174998Y-58036467D02*
X43174998Y-58724562D01*
X43174998Y-58724562D02*
X43215475Y-58805514D01*
X43215475Y-58805514D02*
X43255951Y-58845991D01*
X43255951Y-58845991D02*
X43336903Y-58886467D01*
X43336903Y-58886467D02*
X43498808Y-58886467D01*
X43498808Y-58886467D02*
X43579760Y-58845991D01*
X43579760Y-58845991D02*
X43620237Y-58805514D01*
X43620237Y-58805514D02*
X43660713Y-58724562D01*
X43660713Y-58724562D02*
X43660713Y-58036467D01*
X44024998Y-58845991D02*
X44146427Y-58886467D01*
X44146427Y-58886467D02*
X44348808Y-58886467D01*
X44348808Y-58886467D02*
X44429760Y-58845991D01*
X44429760Y-58845991D02*
X44470236Y-58805514D01*
X44470236Y-58805514D02*
X44510713Y-58724562D01*
X44510713Y-58724562D02*
X44510713Y-58643610D01*
X44510713Y-58643610D02*
X44470236Y-58562657D01*
X44470236Y-58562657D02*
X44429760Y-58522181D01*
X44429760Y-58522181D02*
X44348808Y-58481705D01*
X44348808Y-58481705D02*
X44186903Y-58441229D01*
X44186903Y-58441229D02*
X44105951Y-58400752D01*
X44105951Y-58400752D02*
X44065474Y-58360276D01*
X44065474Y-58360276D02*
X44024998Y-58279324D01*
X44024998Y-58279324D02*
X44024998Y-58198371D01*
X44024998Y-58198371D02*
X44065474Y-58117419D01*
X44065474Y-58117419D02*
X44105951Y-58076943D01*
X44105951Y-58076943D02*
X44186903Y-58036467D01*
X44186903Y-58036467D02*
X44389284Y-58036467D01*
X44389284Y-58036467D02*
X44510713Y-58076943D01*
X44874998Y-58441229D02*
X45158332Y-58441229D01*
X45279760Y-58886467D02*
X44874998Y-58886467D01*
X44874998Y-58886467D02*
X44874998Y-58036467D01*
X44874998Y-58036467D02*
X45279760Y-58036467D01*
X46777380Y-58886467D02*
X46494046Y-58481705D01*
X46291665Y-58886467D02*
X46291665Y-58036467D01*
X46291665Y-58036467D02*
X46615475Y-58036467D01*
X46615475Y-58036467D02*
X46696427Y-58076943D01*
X46696427Y-58076943D02*
X46736904Y-58117419D01*
X46736904Y-58117419D02*
X46777380Y-58198371D01*
X46777380Y-58198371D02*
X46777380Y-58319800D01*
X46777380Y-58319800D02*
X46736904Y-58400752D01*
X46736904Y-58400752D02*
X46696427Y-58441229D01*
X46696427Y-58441229D02*
X46615475Y-58481705D01*
X46615475Y-58481705D02*
X46291665Y-58481705D01*
X47141665Y-58441229D02*
X47424999Y-58441229D01*
X47546427Y-58886467D02*
X47141665Y-58886467D01*
X47141665Y-58886467D02*
X47141665Y-58036467D01*
X47141665Y-58036467D02*
X47546427Y-58036467D01*
X48477380Y-58967419D02*
X48396428Y-58926943D01*
X48396428Y-58926943D02*
X48315475Y-58845991D01*
X48315475Y-58845991D02*
X48194047Y-58724562D01*
X48194047Y-58724562D02*
X48113094Y-58684086D01*
X48113094Y-58684086D02*
X48032142Y-58684086D01*
X48072618Y-58886467D02*
X47991666Y-58845991D01*
X47991666Y-58845991D02*
X47910713Y-58765038D01*
X47910713Y-58765038D02*
X47870237Y-58603133D01*
X47870237Y-58603133D02*
X47870237Y-58319800D01*
X47870237Y-58319800D02*
X47910713Y-58157895D01*
X47910713Y-58157895D02*
X47991666Y-58076943D01*
X47991666Y-58076943D02*
X48072618Y-58036467D01*
X48072618Y-58036467D02*
X48234523Y-58036467D01*
X48234523Y-58036467D02*
X48315475Y-58076943D01*
X48315475Y-58076943D02*
X48396428Y-58157895D01*
X48396428Y-58157895D02*
X48436904Y-58319800D01*
X48436904Y-58319800D02*
X48436904Y-58603133D01*
X48436904Y-58603133D02*
X48396428Y-58765038D01*
X48396428Y-58765038D02*
X48315475Y-58845991D01*
X48315475Y-58845991D02*
X48234523Y-58886467D01*
X48234523Y-58886467D02*
X48072618Y-58886467D01*
X48801189Y-58036467D02*
X48801189Y-58724562D01*
X48801189Y-58724562D02*
X48841666Y-58805514D01*
X48841666Y-58805514D02*
X48882142Y-58845991D01*
X48882142Y-58845991D02*
X48963094Y-58886467D01*
X48963094Y-58886467D02*
X49124999Y-58886467D01*
X49124999Y-58886467D02*
X49205951Y-58845991D01*
X49205951Y-58845991D02*
X49246428Y-58805514D01*
X49246428Y-58805514D02*
X49286904Y-58724562D01*
X49286904Y-58724562D02*
X49286904Y-58036467D01*
X49691665Y-58886467D02*
X49691665Y-58036467D01*
X50582142Y-58886467D02*
X50298808Y-58481705D01*
X50096427Y-58886467D02*
X50096427Y-58036467D01*
X50096427Y-58036467D02*
X50420237Y-58036467D01*
X50420237Y-58036467D02*
X50501189Y-58076943D01*
X50501189Y-58076943D02*
X50541666Y-58117419D01*
X50541666Y-58117419D02*
X50582142Y-58198371D01*
X50582142Y-58198371D02*
X50582142Y-58319800D01*
X50582142Y-58319800D02*
X50541666Y-58400752D01*
X50541666Y-58400752D02*
X50501189Y-58441229D01*
X50501189Y-58441229D02*
X50420237Y-58481705D01*
X50420237Y-58481705D02*
X50096427Y-58481705D01*
X50946427Y-58441229D02*
X51229761Y-58441229D01*
X51351189Y-58886467D02*
X50946427Y-58886467D01*
X50946427Y-58886467D02*
X50946427Y-58036467D01*
X50946427Y-58036467D02*
X51351189Y-58036467D01*
X51715475Y-58886467D02*
X51715475Y-58036467D01*
X51715475Y-58036467D02*
X51917856Y-58036467D01*
X51917856Y-58036467D02*
X52039285Y-58076943D01*
X52039285Y-58076943D02*
X52120237Y-58157895D01*
X52120237Y-58157895D02*
X52160714Y-58238848D01*
X52160714Y-58238848D02*
X52201190Y-58400752D01*
X52201190Y-58400752D02*
X52201190Y-58522181D01*
X52201190Y-58522181D02*
X52160714Y-58684086D01*
X52160714Y-58684086D02*
X52120237Y-58765038D01*
X52120237Y-58765038D02*
X52039285Y-58845991D01*
X52039285Y-58845991D02*
X51917856Y-58886467D01*
X51917856Y-58886467D02*
X51715475Y-58886467D01*
X53213094Y-58886467D02*
X53213094Y-58036467D01*
X53617856Y-58886467D02*
X53617856Y-58036467D01*
X53617856Y-58036467D02*
X54103571Y-58886467D01*
X54103571Y-58886467D02*
X54103571Y-58036467D01*
X55439285Y-58441229D02*
X55560713Y-58481705D01*
X55560713Y-58481705D02*
X55601190Y-58522181D01*
X55601190Y-58522181D02*
X55641666Y-58603133D01*
X55641666Y-58603133D02*
X55641666Y-58724562D01*
X55641666Y-58724562D02*
X55601190Y-58805514D01*
X55601190Y-58805514D02*
X55560713Y-58845991D01*
X55560713Y-58845991D02*
X55479761Y-58886467D01*
X55479761Y-58886467D02*
X55155951Y-58886467D01*
X55155951Y-58886467D02*
X55155951Y-58036467D01*
X55155951Y-58036467D02*
X55439285Y-58036467D01*
X55439285Y-58036467D02*
X55520237Y-58076943D01*
X55520237Y-58076943D02*
X55560713Y-58117419D01*
X55560713Y-58117419D02*
X55601190Y-58198371D01*
X55601190Y-58198371D02*
X55601190Y-58279324D01*
X55601190Y-58279324D02*
X55560713Y-58360276D01*
X55560713Y-58360276D02*
X55520237Y-58400752D01*
X55520237Y-58400752D02*
X55439285Y-58441229D01*
X55439285Y-58441229D02*
X55155951Y-58441229D01*
X56005951Y-58562657D02*
X56653571Y-58562657D01*
X56329761Y-58886467D02*
X56329761Y-58238848D01*
X58110713Y-58886467D02*
X57705951Y-58886467D01*
X57705951Y-58886467D02*
X57705951Y-58036467D01*
X58394046Y-58441229D02*
X58677380Y-58441229D01*
X58798808Y-58886467D02*
X58394046Y-58886467D01*
X58394046Y-58886467D02*
X58394046Y-58036467D01*
X58394046Y-58036467D02*
X58798808Y-58036467D01*
X59122618Y-58643610D02*
X59527380Y-58643610D01*
X59041666Y-58886467D02*
X59324999Y-58036467D01*
X59324999Y-58036467D02*
X59608333Y-58886467D01*
X59891665Y-58886467D02*
X59891665Y-58036467D01*
X59891665Y-58036467D02*
X60094046Y-58036467D01*
X60094046Y-58036467D02*
X60215475Y-58076943D01*
X60215475Y-58076943D02*
X60296427Y-58157895D01*
X60296427Y-58157895D02*
X60336904Y-58238848D01*
X60336904Y-58238848D02*
X60377380Y-58400752D01*
X60377380Y-58400752D02*
X60377380Y-58522181D01*
X60377380Y-58522181D02*
X60336904Y-58684086D01*
X60336904Y-58684086D02*
X60296427Y-58765038D01*
X60296427Y-58765038D02*
X60215475Y-58845991D01*
X60215475Y-58845991D02*
X60094046Y-58886467D01*
X60094046Y-58886467D02*
X59891665Y-58886467D01*
D12*
X22071427Y-54931009D02*
X22214284Y-54978628D01*
X22214284Y-54978628D02*
X22261903Y-55026247D01*
X22261903Y-55026247D02*
X22309522Y-55121485D01*
X22309522Y-55121485D02*
X22309522Y-55264342D01*
X22309522Y-55264342D02*
X22261903Y-55359580D01*
X22261903Y-55359580D02*
X22214284Y-55407200D01*
X22214284Y-55407200D02*
X22119046Y-55454819D01*
X22119046Y-55454819D02*
X21738094Y-55454819D01*
X21738094Y-55454819D02*
X21738094Y-54454819D01*
X21738094Y-54454819D02*
X22071427Y-54454819D01*
X22071427Y-54454819D02*
X22166665Y-54502438D01*
X22166665Y-54502438D02*
X22214284Y-54550057D01*
X22214284Y-54550057D02*
X22261903Y-54645295D01*
X22261903Y-54645295D02*
X22261903Y-54740533D01*
X22261903Y-54740533D02*
X22214284Y-54835771D01*
X22214284Y-54835771D02*
X22166665Y-54883390D01*
X22166665Y-54883390D02*
X22071427Y-54931009D01*
X22071427Y-54931009D02*
X21738094Y-54931009D01*
X23214284Y-55454819D02*
X22738094Y-55454819D01*
X22738094Y-55454819D02*
X22738094Y-54454819D01*
X23738094Y-54454819D02*
X23928570Y-54454819D01*
X23928570Y-54454819D02*
X24023808Y-54502438D01*
X24023808Y-54502438D02*
X24119046Y-54597676D01*
X24119046Y-54597676D02*
X24166665Y-54788152D01*
X24166665Y-54788152D02*
X24166665Y-55121485D01*
X24166665Y-55121485D02*
X24119046Y-55311961D01*
X24119046Y-55311961D02*
X24023808Y-55407200D01*
X24023808Y-55407200D02*
X23928570Y-55454819D01*
X23928570Y-55454819D02*
X23738094Y-55454819D01*
X23738094Y-55454819D02*
X23642856Y-55407200D01*
X23642856Y-55407200D02*
X23547618Y-55311961D01*
X23547618Y-55311961D02*
X23499999Y-55121485D01*
X23499999Y-55121485D02*
X23499999Y-54788152D01*
X23499999Y-54788152D02*
X23547618Y-54597676D01*
X23547618Y-54597676D02*
X23642856Y-54502438D01*
X23642856Y-54502438D02*
X23738094Y-54454819D01*
X24499999Y-54454819D02*
X24738094Y-55454819D01*
X24738094Y-55454819D02*
X24928570Y-54740533D01*
X24928570Y-54740533D02*
X25119046Y-55454819D01*
X25119046Y-55454819D02*
X25357142Y-54454819D01*
X25738094Y-54931009D02*
X26071427Y-54931009D01*
X26214284Y-55454819D02*
X25738094Y-55454819D01*
X25738094Y-55454819D02*
X25738094Y-54454819D01*
X25738094Y-54454819D02*
X26214284Y-54454819D01*
X27214284Y-55454819D02*
X26880951Y-54978628D01*
X26642856Y-55454819D02*
X26642856Y-54454819D01*
X26642856Y-54454819D02*
X27023808Y-54454819D01*
X27023808Y-54454819D02*
X27119046Y-54502438D01*
X27119046Y-54502438D02*
X27166665Y-54550057D01*
X27166665Y-54550057D02*
X27214284Y-54645295D01*
X27214284Y-54645295D02*
X27214284Y-54788152D01*
X27214284Y-54788152D02*
X27166665Y-54883390D01*
X27166665Y-54883390D02*
X27119046Y-54931009D01*
X27119046Y-54931009D02*
X27023808Y-54978628D01*
X27023808Y-54978628D02*
X26642856Y-54978628D01*
X28976189Y-55359580D02*
X28928570Y-55407200D01*
X28928570Y-55407200D02*
X28785713Y-55454819D01*
X28785713Y-55454819D02*
X28690475Y-55454819D01*
X28690475Y-55454819D02*
X28547618Y-55407200D01*
X28547618Y-55407200D02*
X28452380Y-55311961D01*
X28452380Y-55311961D02*
X28404761Y-55216723D01*
X28404761Y-55216723D02*
X28357142Y-55026247D01*
X28357142Y-55026247D02*
X28357142Y-54883390D01*
X28357142Y-54883390D02*
X28404761Y-54692914D01*
X28404761Y-54692914D02*
X28452380Y-54597676D01*
X28452380Y-54597676D02*
X28547618Y-54502438D01*
X28547618Y-54502438D02*
X28690475Y-54454819D01*
X28690475Y-54454819D02*
X28785713Y-54454819D01*
X28785713Y-54454819D02*
X28928570Y-54502438D01*
X28928570Y-54502438D02*
X28976189Y-54550057D01*
X29261904Y-54454819D02*
X29833332Y-54454819D01*
X29547618Y-55454819D02*
X29547618Y-54454819D01*
X30738094Y-55454819D02*
X30404761Y-54978628D01*
X30166666Y-55454819D02*
X30166666Y-54454819D01*
X30166666Y-54454819D02*
X30547618Y-54454819D01*
X30547618Y-54454819D02*
X30642856Y-54502438D01*
X30642856Y-54502438D02*
X30690475Y-54550057D01*
X30690475Y-54550057D02*
X30738094Y-54645295D01*
X30738094Y-54645295D02*
X30738094Y-54788152D01*
X30738094Y-54788152D02*
X30690475Y-54883390D01*
X30690475Y-54883390D02*
X30642856Y-54931009D01*
X30642856Y-54931009D02*
X30547618Y-54978628D01*
X30547618Y-54978628D02*
X30166666Y-54978628D01*
X31642856Y-55454819D02*
X31166666Y-55454819D01*
X31166666Y-55454819D02*
X31166666Y-54454819D01*
X33214285Y-54454819D02*
X32738095Y-54454819D01*
X32738095Y-54454819D02*
X32690476Y-54931009D01*
X32690476Y-54931009D02*
X32738095Y-54883390D01*
X32738095Y-54883390D02*
X32833333Y-54835771D01*
X32833333Y-54835771D02*
X33071428Y-54835771D01*
X33071428Y-54835771D02*
X33166666Y-54883390D01*
X33166666Y-54883390D02*
X33214285Y-54931009D01*
X33214285Y-54931009D02*
X33261904Y-55026247D01*
X33261904Y-55026247D02*
X33261904Y-55264342D01*
X33261904Y-55264342D02*
X33214285Y-55359580D01*
X33214285Y-55359580D02*
X33166666Y-55407200D01*
X33166666Y-55407200D02*
X33071428Y-55454819D01*
X33071428Y-55454819D02*
X32833333Y-55454819D01*
X32833333Y-55454819D02*
X32738095Y-55407200D01*
X32738095Y-55407200D02*
X32690476Y-55359580D01*
X33642857Y-55407200D02*
X33785714Y-55454819D01*
X33785714Y-55454819D02*
X34023809Y-55454819D01*
X34023809Y-55454819D02*
X34119047Y-55407200D01*
X34119047Y-55407200D02*
X34166666Y-55359580D01*
X34166666Y-55359580D02*
X34214285Y-55264342D01*
X34214285Y-55264342D02*
X34214285Y-55169104D01*
X34214285Y-55169104D02*
X34166666Y-55073866D01*
X34166666Y-55073866D02*
X34119047Y-55026247D01*
X34119047Y-55026247D02*
X34023809Y-54978628D01*
X34023809Y-54978628D02*
X33833333Y-54931009D01*
X33833333Y-54931009D02*
X33738095Y-54883390D01*
X33738095Y-54883390D02*
X33690476Y-54835771D01*
X33690476Y-54835771D02*
X33642857Y-54740533D01*
X33642857Y-54740533D02*
X33642857Y-54645295D01*
X33642857Y-54645295D02*
X33690476Y-54550057D01*
X33690476Y-54550057D02*
X33738095Y-54502438D01*
X33738095Y-54502438D02*
X33833333Y-54454819D01*
X33833333Y-54454819D02*
X34071428Y-54454819D01*
X34071428Y-54454819D02*
X34214285Y-54502438D01*
X35976190Y-55454819D02*
X35642857Y-54978628D01*
X35404762Y-55454819D02*
X35404762Y-54454819D01*
X35404762Y-54454819D02*
X35785714Y-54454819D01*
X35785714Y-54454819D02*
X35880952Y-54502438D01*
X35880952Y-54502438D02*
X35928571Y-54550057D01*
X35928571Y-54550057D02*
X35976190Y-54645295D01*
X35976190Y-54645295D02*
X35976190Y-54788152D01*
X35976190Y-54788152D02*
X35928571Y-54883390D01*
X35928571Y-54883390D02*
X35880952Y-54931009D01*
X35880952Y-54931009D02*
X35785714Y-54978628D01*
X35785714Y-54978628D02*
X35404762Y-54978628D01*
X36404762Y-54931009D02*
X36738095Y-54931009D01*
X36880952Y-55454819D02*
X36404762Y-55454819D01*
X36404762Y-55454819D02*
X36404762Y-54454819D01*
X36404762Y-54454819D02*
X36880952Y-54454819D01*
X37166667Y-54454819D02*
X37500000Y-55454819D01*
X37500000Y-55454819D02*
X37833333Y-54454819D01*
X39500000Y-55359580D02*
X39452381Y-55407200D01*
X39452381Y-55407200D02*
X39309524Y-55454819D01*
X39309524Y-55454819D02*
X39214286Y-55454819D01*
X39214286Y-55454819D02*
X39071429Y-55407200D01*
X39071429Y-55407200D02*
X38976191Y-55311961D01*
X38976191Y-55311961D02*
X38928572Y-55216723D01*
X38928572Y-55216723D02*
X38880953Y-55026247D01*
X38880953Y-55026247D02*
X38880953Y-54883390D01*
X38880953Y-54883390D02*
X38928572Y-54692914D01*
X38928572Y-54692914D02*
X38976191Y-54597676D01*
X38976191Y-54597676D02*
X39071429Y-54502438D01*
X39071429Y-54502438D02*
X39214286Y-54454819D01*
X39214286Y-54454819D02*
X39309524Y-54454819D01*
X39309524Y-54454819D02*
X39452381Y-54502438D01*
X39452381Y-54502438D02*
X39500000Y-54550057D01*
X40690477Y-55073866D02*
X41452382Y-55073866D01*
X43261905Y-55454819D02*
X42928572Y-54978628D01*
X42690477Y-55454819D02*
X42690477Y-54454819D01*
X42690477Y-54454819D02*
X43071429Y-54454819D01*
X43071429Y-54454819D02*
X43166667Y-54502438D01*
X43166667Y-54502438D02*
X43214286Y-54550057D01*
X43214286Y-54550057D02*
X43261905Y-54645295D01*
X43261905Y-54645295D02*
X43261905Y-54788152D01*
X43261905Y-54788152D02*
X43214286Y-54883390D01*
X43214286Y-54883390D02*
X43166667Y-54931009D01*
X43166667Y-54931009D02*
X43071429Y-54978628D01*
X43071429Y-54978628D02*
X42690477Y-54978628D01*
X43690477Y-54931009D02*
X44023810Y-54931009D01*
X44166667Y-55454819D02*
X43690477Y-55454819D01*
X43690477Y-55454819D02*
X43690477Y-54454819D01*
X43690477Y-54454819D02*
X44166667Y-54454819D01*
X44928572Y-54931009D02*
X44595239Y-54931009D01*
X44595239Y-55454819D02*
X44595239Y-54454819D01*
X44595239Y-54454819D02*
X45071429Y-54454819D01*
X45452382Y-54931009D02*
X45785715Y-54931009D01*
X45928572Y-55454819D02*
X45452382Y-55454819D01*
X45452382Y-55454819D02*
X45452382Y-54454819D01*
X45452382Y-54454819D02*
X45928572Y-54454819D01*
X46928572Y-55454819D02*
X46595239Y-54978628D01*
X46357144Y-55454819D02*
X46357144Y-54454819D01*
X46357144Y-54454819D02*
X46738096Y-54454819D01*
X46738096Y-54454819D02*
X46833334Y-54502438D01*
X46833334Y-54502438D02*
X46880953Y-54550057D01*
X46880953Y-54550057D02*
X46928572Y-54645295D01*
X46928572Y-54645295D02*
X46928572Y-54788152D01*
X46928572Y-54788152D02*
X46880953Y-54883390D01*
X46880953Y-54883390D02*
X46833334Y-54931009D01*
X46833334Y-54931009D02*
X46738096Y-54978628D01*
X46738096Y-54978628D02*
X46357144Y-54978628D01*
X47357144Y-54931009D02*
X47690477Y-54931009D01*
X47833334Y-55454819D02*
X47357144Y-55454819D01*
X47357144Y-55454819D02*
X47357144Y-54454819D01*
X47357144Y-54454819D02*
X47833334Y-54454819D01*
X48261906Y-55454819D02*
X48261906Y-54454819D01*
X48261906Y-54454819D02*
X48833334Y-55454819D01*
X48833334Y-55454819D02*
X48833334Y-54454819D01*
X49880953Y-55359580D02*
X49833334Y-55407200D01*
X49833334Y-55407200D02*
X49690477Y-55454819D01*
X49690477Y-55454819D02*
X49595239Y-55454819D01*
X49595239Y-55454819D02*
X49452382Y-55407200D01*
X49452382Y-55407200D02*
X49357144Y-55311961D01*
X49357144Y-55311961D02*
X49309525Y-55216723D01*
X49309525Y-55216723D02*
X49261906Y-55026247D01*
X49261906Y-55026247D02*
X49261906Y-54883390D01*
X49261906Y-54883390D02*
X49309525Y-54692914D01*
X49309525Y-54692914D02*
X49357144Y-54597676D01*
X49357144Y-54597676D02*
X49452382Y-54502438D01*
X49452382Y-54502438D02*
X49595239Y-54454819D01*
X49595239Y-54454819D02*
X49690477Y-54454819D01*
X49690477Y-54454819D02*
X49833334Y-54502438D01*
X49833334Y-54502438D02*
X49880953Y-54550057D01*
X50309525Y-54931009D02*
X50642858Y-54931009D01*
X50785715Y-55454819D02*
X50309525Y-55454819D01*
X50309525Y-55454819D02*
X50309525Y-54454819D01*
X50309525Y-54454819D02*
X50785715Y-54454819D01*
X52166668Y-54454819D02*
X52357144Y-54454819D01*
X52357144Y-54454819D02*
X52452382Y-54502438D01*
X52452382Y-54502438D02*
X52547620Y-54597676D01*
X52547620Y-54597676D02*
X52595239Y-54788152D01*
X52595239Y-54788152D02*
X52595239Y-55121485D01*
X52595239Y-55121485D02*
X52547620Y-55311961D01*
X52547620Y-55311961D02*
X52452382Y-55407200D01*
X52452382Y-55407200D02*
X52357144Y-55454819D01*
X52357144Y-55454819D02*
X52166668Y-55454819D01*
X52166668Y-55454819D02*
X52071430Y-55407200D01*
X52071430Y-55407200D02*
X51976192Y-55311961D01*
X51976192Y-55311961D02*
X51928573Y-55121485D01*
X51928573Y-55121485D02*
X51928573Y-54788152D01*
X51928573Y-54788152D02*
X51976192Y-54597676D01*
X51976192Y-54597676D02*
X52071430Y-54502438D01*
X52071430Y-54502438D02*
X52166668Y-54454819D01*
X53023811Y-55454819D02*
X53023811Y-54454819D01*
X53023811Y-54454819D02*
X53595239Y-55454819D01*
X53595239Y-55454819D02*
X53595239Y-54454819D01*
X54547620Y-55454819D02*
X54071430Y-55454819D01*
X54071430Y-55454819D02*
X54071430Y-54454819D01*
X55071430Y-54978628D02*
X55071430Y-55454819D01*
X54738097Y-54454819D02*
X55071430Y-54978628D01*
X55071430Y-54978628D02*
X55404763Y-54454819D01*
D13*
X15857143Y-11044742D02*
X15857143Y-9844742D01*
X15857143Y-9844742D02*
X16257143Y-10701885D01*
X16257143Y-10701885D02*
X16657143Y-9844742D01*
X16657143Y-9844742D02*
X16657143Y-11044742D01*
X17228572Y-10587600D02*
X18142858Y-10587600D01*
X25857143Y-11044742D02*
X25857143Y-9844742D01*
X25857143Y-9844742D02*
X26257143Y-10701885D01*
X26257143Y-10701885D02*
X26657143Y-9844742D01*
X26657143Y-9844742D02*
X26657143Y-11044742D01*
X27228572Y-10587600D02*
X28142858Y-10587600D01*
X27685715Y-11044742D02*
X27685715Y-10130457D01*
X47342857Y-42916171D02*
X47514285Y-42973314D01*
X47514285Y-42973314D02*
X47571428Y-43030457D01*
X47571428Y-43030457D02*
X47628571Y-43144742D01*
X47628571Y-43144742D02*
X47628571Y-43316171D01*
X47628571Y-43316171D02*
X47571428Y-43430457D01*
X47571428Y-43430457D02*
X47514285Y-43487600D01*
X47514285Y-43487600D02*
X47400000Y-43544742D01*
X47400000Y-43544742D02*
X46942857Y-43544742D01*
X46942857Y-43544742D02*
X46942857Y-42344742D01*
X46942857Y-42344742D02*
X47342857Y-42344742D01*
X47342857Y-42344742D02*
X47457143Y-42401885D01*
X47457143Y-42401885D02*
X47514285Y-42459028D01*
X47514285Y-42459028D02*
X47571428Y-42573314D01*
X47571428Y-42573314D02*
X47571428Y-42687600D01*
X47571428Y-42687600D02*
X47514285Y-42801885D01*
X47514285Y-42801885D02*
X47457143Y-42859028D01*
X47457143Y-42859028D02*
X47342857Y-42916171D01*
X47342857Y-42916171D02*
X46942857Y-42916171D01*
X48142857Y-43087600D02*
X49057143Y-43087600D01*
X49842857Y-10416171D02*
X50014285Y-10473314D01*
X50014285Y-10473314D02*
X50071428Y-10530457D01*
X50071428Y-10530457D02*
X50128571Y-10644742D01*
X50128571Y-10644742D02*
X50128571Y-10816171D01*
X50128571Y-10816171D02*
X50071428Y-10930457D01*
X50071428Y-10930457D02*
X50014285Y-10987600D01*
X50014285Y-10987600D02*
X49900000Y-11044742D01*
X49900000Y-11044742D02*
X49442857Y-11044742D01*
X49442857Y-11044742D02*
X49442857Y-9844742D01*
X49442857Y-9844742D02*
X49842857Y-9844742D01*
X49842857Y-9844742D02*
X49957143Y-9901885D01*
X49957143Y-9901885D02*
X50014285Y-9959028D01*
X50014285Y-9959028D02*
X50071428Y-10073314D01*
X50071428Y-10073314D02*
X50071428Y-10187600D01*
X50071428Y-10187600D02*
X50014285Y-10301885D01*
X50014285Y-10301885D02*
X49957143Y-10359028D01*
X49957143Y-10359028D02*
X49842857Y-10416171D01*
X49842857Y-10416171D02*
X49442857Y-10416171D01*
X50642857Y-10587600D02*
X51557143Y-10587600D01*
X51100000Y-11044742D02*
X51100000Y-10130457D01*
%TO.C,C10*%
D10*
X13590000Y-26211252D02*
X13590000Y-24788748D01*
X15410000Y-26211252D02*
X15410000Y-24788748D01*
%TO.C,R4*%
X41772936Y-25565000D02*
X42227064Y-25565000D01*
X41772936Y-27035000D02*
X42227064Y-27035000D01*
%TO.C,TP1*%
X29950000Y-51500000D02*
G75*
G02*
X28050000Y-51500000I-950000J0D01*
G01*
X28050000Y-51500000D02*
G75*
G02*
X29950000Y-51500000I950000J0D01*
G01*
%TO.C,C3*%
X52788748Y-28640000D02*
X54211252Y-28640000D01*
X52788748Y-31360000D02*
X54211252Y-31360000D01*
%TO.C,TP4*%
X31550000Y-29500000D02*
G75*
G02*
X29650000Y-29500000I-950000J0D01*
G01*
X29650000Y-29500000D02*
G75*
G02*
X31550000Y-29500000I950000J0D01*
G01*
%TO.C,TP6*%
X9950000Y-10000000D02*
G75*
G02*
X8050000Y-10000000I-950000J0D01*
G01*
X8050000Y-10000000D02*
G75*
G02*
X9950000Y-10000000I950000J0D01*
G01*
%TO.C,C20*%
X46788748Y-37640000D02*
X48211252Y-37640000D01*
X46788748Y-40360000D02*
X48211252Y-40360000D01*
%TO.C,C18*%
X28359420Y-41490000D02*
X28640580Y-41490000D01*
X28359420Y-42510000D02*
X28640580Y-42510000D01*
%TO.C,D3*%
X5150000Y-17110000D02*
X5150000Y-14450000D01*
X5150000Y-17110000D02*
X6850000Y-17110000D01*
X6850000Y-17110000D02*
X6850000Y-14450000D01*
%TO.C,J6*%
X23620000Y-49380000D02*
X23620000Y-48000000D01*
X25000000Y-49380000D02*
X23620000Y-49380000D01*
X26270000Y-46620000D02*
X31460000Y-46620000D01*
X26270000Y-49380000D02*
X26270000Y-46620000D01*
X26270000Y-49380000D02*
X31460000Y-49380000D01*
X31460000Y-49380000D02*
X31460000Y-46620000D01*
%TO.C,C13*%
X14859420Y-30990000D02*
X15140580Y-30990000D01*
X14859420Y-32010000D02*
X15140580Y-32010000D01*
%TO.C,Q1*%
X18940000Y-26200000D02*
X18940000Y-15930000D01*
X29060000Y-26200000D02*
X29060000Y-15930000D01*
X19040000Y-26660000D02*
X18710000Y-26420000D01*
X18710000Y-26900000D01*
X19040000Y-26660000D01*
G36*
X19040000Y-26660000D02*
G01*
X18710000Y-26900000D01*
X18710000Y-26420000D01*
X19040000Y-26660000D01*
G37*
%TO.C,R11*%
X12762742Y-47977500D02*
X13237258Y-47977500D01*
X12762742Y-49022500D02*
X13237258Y-49022500D01*
%TO.C,U2*%
X22440000Y-31440000D02*
X26560000Y-31440000D01*
X22440000Y-31535000D02*
X22440000Y-31440000D01*
X22440000Y-36560000D02*
X22440000Y-36465000D01*
X26560000Y-31440000D02*
X26560000Y-31535000D01*
X26560000Y-36465000D02*
X26560000Y-36560000D01*
X26560000Y-36560000D02*
X22440000Y-36560000D01*
X21900000Y-31530000D02*
X21660000Y-31200000D01*
X22140000Y-31200000D01*
X21900000Y-31530000D01*
G36*
X21900000Y-31530000D02*
G01*
X21660000Y-31200000D01*
X22140000Y-31200000D01*
X21900000Y-31530000D01*
G37*
%TO.C,TP2*%
X6450000Y-20000000D02*
G75*
G02*
X4550000Y-20000000I-950000J0D01*
G01*
X4550000Y-20000000D02*
G75*
G02*
X6450000Y-20000000I950000J0D01*
G01*
%TO.C,C8*%
X27859420Y-37490000D02*
X28140580Y-37490000D01*
X27859420Y-38510000D02*
X28140580Y-38510000D01*
%TO.C,C9*%
X7140000Y-20511252D02*
X7140000Y-19088748D01*
X9860000Y-20511252D02*
X9860000Y-19088748D01*
%TO.C,R3*%
X19027064Y-28265000D02*
X18572936Y-28265000D01*
X19027064Y-29735000D02*
X18572936Y-29735000D01*
%TO.C,C4*%
X52788748Y-32640000D02*
X54211252Y-32640000D01*
X52788748Y-35360000D02*
X54211252Y-35360000D01*
%TO.C,LED1*%
X15515000Y-47765000D02*
X15515000Y-49235000D01*
X15515000Y-49235000D02*
X17800000Y-49235000D01*
X17800000Y-47765000D02*
X15515000Y-47765000D01*
%TO.C,R16*%
X44290000Y-35177064D02*
X44290000Y-30822936D01*
X47710000Y-35177064D02*
X47710000Y-30822936D01*
%TO.C,R13*%
X42237258Y-28677500D02*
X41762742Y-28677500D01*
X42237258Y-29722500D02*
X41762742Y-29722500D01*
%TO.C,R6*%
X8262742Y-52477500D02*
X8737258Y-52477500D01*
X8262742Y-53522500D02*
X8737258Y-53522500D01*
%TO.C,C12*%
X4990000Y-31940580D02*
X4990000Y-31659420D01*
X6010000Y-31940580D02*
X6010000Y-31659420D01*
%TO.C,C1*%
X55982918Y-25925000D02*
X57232918Y-25925000D01*
X56607918Y-25300000D02*
X56607918Y-26550000D01*
X62800000Y-23170000D02*
X62800000Y-35830000D01*
X62840000Y-23170000D02*
X62840000Y-35830000D01*
X62880000Y-23171000D02*
X62880000Y-35829000D01*
X62920000Y-23171000D02*
X62920000Y-35829000D01*
X62960000Y-23172000D02*
X62960000Y-35828000D01*
X63000000Y-23173000D02*
X63000000Y-35827000D01*
X63040000Y-23175000D02*
X63040000Y-35825000D01*
X63080000Y-23176000D02*
X63080000Y-35824000D01*
X63120000Y-23178000D02*
X63120000Y-35822000D01*
X63160000Y-23180000D02*
X63160000Y-35820000D01*
X63200000Y-23183000D02*
X63200000Y-35817000D01*
X63240000Y-23185000D02*
X63240000Y-35815000D01*
X63280000Y-23188000D02*
X63280000Y-35812000D01*
X63320000Y-23191000D02*
X63320000Y-35809000D01*
X63360000Y-23195000D02*
X63360000Y-35805000D01*
X63400000Y-23198000D02*
X63400000Y-35802000D01*
X63440000Y-23202000D02*
X63440000Y-35798000D01*
X63480000Y-23206000D02*
X63480000Y-35794000D01*
X63520000Y-23211000D02*
X63520000Y-35789000D01*
X63560000Y-23216000D02*
X63560000Y-35784000D01*
X63600000Y-23220000D02*
X63600000Y-35780000D01*
X63640000Y-23226000D02*
X63640000Y-35774000D01*
X63680000Y-23231000D02*
X63680000Y-35769000D01*
X63720000Y-23237000D02*
X63720000Y-35763000D01*
X63760000Y-23243000D02*
X63760000Y-35757000D01*
X63800000Y-23249000D02*
X63800000Y-35751000D01*
X63840000Y-23255000D02*
X63840000Y-35745000D01*
X63880000Y-23262000D02*
X63880000Y-28060000D01*
X63880000Y-30940000D02*
X63880000Y-35738000D01*
X63920000Y-23269000D02*
X63920000Y-28060000D01*
X63920000Y-30940000D02*
X63920000Y-35731000D01*
X63960000Y-23277000D02*
X63960000Y-28060000D01*
X63960000Y-30940000D02*
X63960000Y-35723000D01*
X64000000Y-23284000D02*
X64000000Y-28060000D01*
X64000000Y-30940000D02*
X64000000Y-35716000D01*
X64040000Y-23292000D02*
X64040000Y-28060000D01*
X64040000Y-30940000D02*
X64040000Y-35708000D01*
X64080000Y-23300000D02*
X64080000Y-28060000D01*
X64080000Y-30940000D02*
X64080000Y-35700000D01*
X64120000Y-23308000D02*
X64120000Y-28060000D01*
X64120000Y-30940000D02*
X64120000Y-35692000D01*
X64160000Y-23317000D02*
X64160000Y-28060000D01*
X64160000Y-30940000D02*
X64160000Y-35683000D01*
X64200000Y-23326000D02*
X64200000Y-28060000D01*
X64200000Y-30940000D02*
X64200000Y-35674000D01*
X64240000Y-23335000D02*
X64240000Y-28060000D01*
X64240000Y-30940000D02*
X64240000Y-35665000D01*
X64280000Y-23344000D02*
X64280000Y-28060000D01*
X64280000Y-30940000D02*
X64280000Y-35656000D01*
X64320000Y-23354000D02*
X64320000Y-28060000D01*
X64320000Y-30940000D02*
X64320000Y-35646000D01*
X64360000Y-23364000D02*
X64360000Y-28060000D01*
X64360000Y-30940000D02*
X64360000Y-35636000D01*
X64400000Y-23374000D02*
X64400000Y-28060000D01*
X64400000Y-30940000D02*
X64400000Y-35626000D01*
X64440000Y-23385000D02*
X64440000Y-28060000D01*
X64440000Y-30940000D02*
X64440000Y-35615000D01*
X64480000Y-23396000D02*
X64480000Y-28060000D01*
X64480000Y-30940000D02*
X64480000Y-35604000D01*
X64520000Y-23407000D02*
X64520000Y-28060000D01*
X64520000Y-30940000D02*
X64520000Y-35593000D01*
X64560000Y-23418000D02*
X64560000Y-28060000D01*
X64560000Y-30940000D02*
X64560000Y-35582000D01*
X64600000Y-23430000D02*
X64600000Y-28060000D01*
X64600000Y-30940000D02*
X64600000Y-35570000D01*
X64640000Y-23442000D02*
X64640000Y-28060000D01*
X64640000Y-30940000D02*
X64640000Y-35558000D01*
X64680000Y-23454000D02*
X64680000Y-28060000D01*
X64680000Y-30940000D02*
X64680000Y-35546000D01*
X64720000Y-23466000D02*
X64720000Y-28060000D01*
X64720000Y-30940000D02*
X64720000Y-35534000D01*
X64760000Y-23479000D02*
X64760000Y-28060000D01*
X64760000Y-30940000D02*
X64760000Y-35521000D01*
X64800000Y-23492000D02*
X64800000Y-28060000D01*
X64800000Y-30940000D02*
X64800000Y-35508000D01*
X64840000Y-23505000D02*
X64840000Y-28060000D01*
X64840000Y-30940000D02*
X64840000Y-35495000D01*
X64880000Y-23519000D02*
X64880000Y-28060000D01*
X64880000Y-30940000D02*
X64880000Y-35481000D01*
X64920000Y-23533000D02*
X64920000Y-28060000D01*
X64920000Y-30940000D02*
X64920000Y-35467000D01*
X64960000Y-23547000D02*
X64960000Y-28060000D01*
X64960000Y-30940000D02*
X64960000Y-35453000D01*
X65000000Y-23562000D02*
X65000000Y-28060000D01*
X65000000Y-30940000D02*
X65000000Y-35438000D01*
X65040000Y-23577000D02*
X65040000Y-28060000D01*
X65040000Y-30940000D02*
X65040000Y-35423000D01*
X65080000Y-23592000D02*
X65080000Y-28060000D01*
X65080000Y-30940000D02*
X65080000Y-35408000D01*
X65120000Y-23608000D02*
X65120000Y-28060000D01*
X65120000Y-30940000D02*
X65120000Y-35392000D01*
X65160000Y-23623000D02*
X65160000Y-28060000D01*
X65160000Y-30940000D02*
X65160000Y-35377000D01*
X65200000Y-23639000D02*
X65200000Y-28060000D01*
X65200000Y-30940000D02*
X65200000Y-35361000D01*
X65240000Y-23656000D02*
X65240000Y-28060000D01*
X65240000Y-30940000D02*
X65240000Y-35344000D01*
X65280000Y-23673000D02*
X65280000Y-28060000D01*
X65280000Y-30940000D02*
X65280000Y-35327000D01*
X65320000Y-23690000D02*
X65320000Y-28060000D01*
X65320000Y-30940000D02*
X65320000Y-35310000D01*
X65360000Y-23707000D02*
X65360000Y-28060000D01*
X65360000Y-30940000D02*
X65360000Y-35293000D01*
X65400000Y-23725000D02*
X65400000Y-28060000D01*
X65400000Y-30940000D02*
X65400000Y-35275000D01*
X65440000Y-23743000D02*
X65440000Y-28060000D01*
X65440000Y-30940000D02*
X65440000Y-35257000D01*
X65480000Y-23761000D02*
X65480000Y-28060000D01*
X65480000Y-30940000D02*
X65480000Y-35239000D01*
X65520000Y-23780000D02*
X65520000Y-28060000D01*
X65520000Y-30940000D02*
X65520000Y-35220000D01*
X65560000Y-23799000D02*
X65560000Y-28060000D01*
X65560000Y-30940000D02*
X65560000Y-35201000D01*
X65600000Y-23818000D02*
X65600000Y-28060000D01*
X65600000Y-30940000D02*
X65600000Y-35182000D01*
X65640000Y-23838000D02*
X65640000Y-28060000D01*
X65640000Y-30940000D02*
X65640000Y-35162000D01*
X65680000Y-23858000D02*
X65680000Y-28060000D01*
X65680000Y-30940000D02*
X65680000Y-35142000D01*
X65720000Y-23879000D02*
X65720000Y-28060000D01*
X65720000Y-30940000D02*
X65720000Y-35121000D01*
X65760000Y-23899000D02*
X65760000Y-28060000D01*
X65760000Y-30940000D02*
X65760000Y-35101000D01*
X65800000Y-23921000D02*
X65800000Y-28060000D01*
X65800000Y-30940000D02*
X65800000Y-35079000D01*
X65840000Y-23942000D02*
X65840000Y-28060000D01*
X65840000Y-30940000D02*
X65840000Y-35058000D01*
X65880000Y-23964000D02*
X65880000Y-28060000D01*
X65880000Y-30940000D02*
X65880000Y-35036000D01*
X65920000Y-23986000D02*
X65920000Y-28060000D01*
X65920000Y-30940000D02*
X65920000Y-35014000D01*
X65960000Y-24009000D02*
X65960000Y-28060000D01*
X65960000Y-30940000D02*
X65960000Y-34991000D01*
X66000000Y-24032000D02*
X66000000Y-28060000D01*
X66000000Y-30940000D02*
X66000000Y-34968000D01*
X66040000Y-24056000D02*
X66040000Y-28060000D01*
X66040000Y-30940000D02*
X66040000Y-34944000D01*
X66080000Y-24079000D02*
X66080000Y-28060000D01*
X66080000Y-30940000D02*
X66080000Y-34921000D01*
X66120000Y-24104000D02*
X66120000Y-28060000D01*
X66120000Y-30940000D02*
X66120000Y-34896000D01*
X66160000Y-24128000D02*
X66160000Y-28060000D01*
X66160000Y-30940000D02*
X66160000Y-34872000D01*
X66200000Y-24153000D02*
X66200000Y-28060000D01*
X66200000Y-30940000D02*
X66200000Y-34847000D01*
X66240000Y-24179000D02*
X66240000Y-28060000D01*
X66240000Y-30940000D02*
X66240000Y-34821000D01*
X66280000Y-24205000D02*
X66280000Y-28060000D01*
X66280000Y-30940000D02*
X66280000Y-34795000D01*
X66320000Y-24231000D02*
X66320000Y-28060000D01*
X66320000Y-30940000D02*
X66320000Y-34769000D01*
X66360000Y-24258000D02*
X66360000Y-28060000D01*
X66360000Y-30940000D02*
X66360000Y-34742000D01*
X66400000Y-24285000D02*
X66400000Y-28060000D01*
X66400000Y-30940000D02*
X66400000Y-34715000D01*
X66440000Y-24312000D02*
X66440000Y-28060000D01*
X66440000Y-30940000D02*
X66440000Y-34688000D01*
X66480000Y-24341000D02*
X66480000Y-28060000D01*
X66480000Y-30940000D02*
X66480000Y-34659000D01*
X66520000Y-24369000D02*
X66520000Y-28060000D01*
X66520000Y-30940000D02*
X66520000Y-34631000D01*
X66560000Y-24398000D02*
X66560000Y-28060000D01*
X66560000Y-30940000D02*
X66560000Y-34602000D01*
X66600000Y-24428000D02*
X66600000Y-28060000D01*
X66600000Y-30940000D02*
X66600000Y-34572000D01*
X66640000Y-24458000D02*
X66640000Y-28060000D01*
X66640000Y-30940000D02*
X66640000Y-34542000D01*
X66680000Y-24488000D02*
X66680000Y-28060000D01*
X66680000Y-30940000D02*
X66680000Y-34512000D01*
X66720000Y-24519000D02*
X66720000Y-28060000D01*
X66720000Y-30940000D02*
X66720000Y-34481000D01*
X66760000Y-24550000D02*
X66760000Y-34450000D01*
X66800000Y-24582000D02*
X66800000Y-34418000D01*
X66840000Y-24615000D02*
X66840000Y-34385000D01*
X66880000Y-24648000D02*
X66880000Y-34352000D01*
X66920000Y-24682000D02*
X66920000Y-34318000D01*
X66960000Y-24716000D02*
X66960000Y-34284000D01*
X67000000Y-24751000D02*
X67000000Y-34249000D01*
X67040000Y-24786000D02*
X67040000Y-34214000D01*
X67080000Y-24822000D02*
X67080000Y-34178000D01*
X67120000Y-24859000D02*
X67120000Y-34141000D01*
X67160000Y-24896000D02*
X67160000Y-34104000D01*
X67200000Y-24934000D02*
X67200000Y-34066000D01*
X67240000Y-24972000D02*
X67240000Y-34028000D01*
X67280000Y-25012000D02*
X67280000Y-33988000D01*
X67320000Y-25052000D02*
X67320000Y-33948000D01*
X67360000Y-25092000D02*
X67360000Y-33908000D01*
X67400000Y-25134000D02*
X67400000Y-33866000D01*
X67440000Y-25176000D02*
X67440000Y-33824000D01*
X67480000Y-25219000D02*
X67480000Y-33781000D01*
X67520000Y-25262000D02*
X67520000Y-33738000D01*
X67560000Y-25307000D02*
X67560000Y-33693000D01*
X67600000Y-25352000D02*
X67600000Y-33648000D01*
X67640000Y-25399000D02*
X67640000Y-33601000D01*
X67680000Y-25446000D02*
X67680000Y-33554000D01*
X67720000Y-25494000D02*
X67720000Y-33506000D01*
X67760000Y-25543000D02*
X67760000Y-33457000D01*
X67800000Y-25593000D02*
X67800000Y-33407000D01*
X67840000Y-25644000D02*
X67840000Y-33356000D01*
X67880000Y-25697000D02*
X67880000Y-33303000D01*
X67920000Y-25750000D02*
X67920000Y-33250000D01*
X67960000Y-25805000D02*
X67960000Y-33195000D01*
X68000000Y-25861000D02*
X68000000Y-33139000D01*
X68040000Y-25918000D02*
X68040000Y-33082000D01*
X68080000Y-25977000D02*
X68080000Y-33023000D01*
X68120000Y-26037000D02*
X68120000Y-32963000D01*
X68160000Y-26098000D02*
X68160000Y-32902000D01*
X68200000Y-26161000D02*
X68200000Y-32839000D01*
X68240000Y-26226000D02*
X68240000Y-32774000D01*
X68280000Y-26292000D02*
X68280000Y-32708000D01*
X68320000Y-26361000D02*
X68320000Y-32639000D01*
X68360000Y-26431000D02*
X68360000Y-32569000D01*
X68400000Y-26504000D02*
X68400000Y-32496000D01*
X68440000Y-26579000D02*
X68440000Y-32421000D01*
X68480000Y-26657000D02*
X68480000Y-32343000D01*
X68520000Y-26737000D02*
X68520000Y-32263000D01*
X68560000Y-26820000D02*
X68560000Y-32180000D01*
X68600000Y-26906000D02*
X68600000Y-32094000D01*
X68640000Y-26996000D02*
X68640000Y-32004000D01*
X68680000Y-27090000D02*
X68680000Y-31910000D01*
X68720000Y-27188000D02*
X68720000Y-31812000D01*
X68760000Y-27292000D02*
X68760000Y-31708000D01*
X68800000Y-27401000D02*
X68800000Y-31599000D01*
X68840000Y-27516000D02*
X68840000Y-31484000D01*
X68880000Y-27640000D02*
X68880000Y-31360000D01*
X68920000Y-27773000D02*
X68920000Y-31227000D01*
X68960000Y-27918000D02*
X68960000Y-31082000D01*
X69000000Y-28078000D02*
X69000000Y-30922000D01*
X69040000Y-28260000D02*
X69040000Y-30740000D01*
X69080000Y-28473000D02*
X69080000Y-30527000D01*
X69120000Y-28743000D02*
X69120000Y-30257000D01*
X69160000Y-29183000D02*
X69160000Y-29817000D01*
X69170000Y-29500000D02*
G75*
G02*
X56430000Y-29500000I-6370000J0D01*
G01*
X56430000Y-29500000D02*
G75*
G02*
X69170000Y-29500000I6370000J0D01*
G01*
%TO.C,RS1*%
X30720000Y-31610000D02*
X42280000Y-31610000D01*
X30720000Y-38810000D02*
X42280000Y-38810000D01*
%TO.C,D4*%
X9990000Y-13850000D02*
X9990000Y-17150000D01*
X9990000Y-13850000D02*
X15500000Y-13850000D01*
X9990000Y-17150000D02*
X15500000Y-17150000D01*
%TO.C,R12*%
X18262742Y-30377500D02*
X18737258Y-30377500D01*
X18262742Y-31422500D02*
X18737258Y-31422500D01*
%TO.C,R1*%
X13762742Y-9977500D02*
X14237258Y-9977500D01*
X13762742Y-11022500D02*
X14237258Y-11022500D01*
%TO.C,R9*%
X4762742Y-41477500D02*
X5237258Y-41477500D01*
X4762742Y-42522500D02*
X5237258Y-42522500D01*
%TO.C,C5*%
X52788748Y-36640000D02*
X54211252Y-36640000D01*
X52788748Y-39360000D02*
X54211252Y-39360000D01*
%TO.C,U5*%
X35590000Y-40440000D02*
X37410000Y-40440000D01*
X35590000Y-40490000D02*
X35590000Y-40440000D01*
X35590000Y-43560000D02*
X35590000Y-43510000D01*
X37410000Y-40440000D02*
X37410000Y-40490000D01*
X37410000Y-41610000D02*
X37410000Y-42390000D01*
X37410000Y-43510000D02*
X37410000Y-43560000D01*
X37410000Y-43560000D02*
X35590000Y-43560000D01*
X35050000Y-40490000D02*
X34810000Y-40160000D01*
X35290000Y-40160000D01*
X35050000Y-40490000D01*
G36*
X35050000Y-40490000D02*
G01*
X34810000Y-40160000D01*
X35290000Y-40160000D01*
X35050000Y-40490000D01*
G37*
%TO.C,R7*%
X3277500Y-35237258D02*
X3277500Y-34762742D01*
X4322500Y-35237258D02*
X4322500Y-34762742D01*
%TO.C,C15*%
X3290000Y-38640580D02*
X3290000Y-38359420D01*
X4310000Y-38640580D02*
X4310000Y-38359420D01*
%TO.C,TP8*%
X20950000Y-10500000D02*
G75*
G02*
X19050000Y-10500000I-950000J0D01*
G01*
X19050000Y-10500000D02*
G75*
G02*
X20950000Y-10500000I950000J0D01*
G01*
%TO.C,C19*%
X40359420Y-41490000D02*
X40640580Y-41490000D01*
X40359420Y-42510000D02*
X40640580Y-42510000D01*
%TO.C,R2*%
X2977500Y-32237258D02*
X2977500Y-31762742D01*
X4022500Y-32237258D02*
X4022500Y-31762742D01*
%TO.C,R10*%
X31762742Y-41477500D02*
X32237258Y-41477500D01*
X31762742Y-42522500D02*
X32237258Y-42522500D01*
%TO.C,D1*%
X56590000Y-13750000D02*
X65100000Y-13750000D01*
X56590000Y-20250000D02*
X56590000Y-13750000D01*
X56590000Y-20250000D02*
X65100000Y-20250000D01*
%TO.C,Q2*%
X43940000Y-26200000D02*
X43940000Y-15930000D01*
X54060000Y-26200000D02*
X54060000Y-15930000D01*
X44040000Y-26660000D02*
X43710000Y-26420000D01*
X43710000Y-26900000D01*
X44040000Y-26660000D01*
G36*
X44040000Y-26660000D02*
G01*
X43710000Y-26900000D01*
X43710000Y-26420000D01*
X44040000Y-26660000D01*
G37*
%TO.C,C14*%
X11359420Y-30990000D02*
X11640580Y-30990000D01*
X11359420Y-32010000D02*
X11640580Y-32010000D01*
%TO.C,C16*%
X7859420Y-30990000D02*
X8140580Y-30990000D01*
X7859420Y-32010000D02*
X8140580Y-32010000D01*
%TO.C,C6*%
X53359420Y-39990000D02*
X53640580Y-39990000D01*
X53359420Y-41010000D02*
X53640580Y-41010000D01*
%TO.C,R8*%
X7977500Y-15737258D02*
X7977500Y-15262742D01*
X9022500Y-15737258D02*
X9022500Y-15262742D01*
%TO.C,U1*%
X9340000Y-33490000D02*
X17060000Y-33490000D01*
X9340000Y-33725000D02*
X9340000Y-33490000D01*
X9340000Y-46510000D02*
X9340000Y-46275000D01*
X17060000Y-33490000D02*
X17060000Y-33725000D01*
X17060000Y-46275000D02*
X17060000Y-46510000D01*
X17060000Y-46510000D02*
X9340000Y-46510000D01*
X8550000Y-33720000D02*
X8210000Y-33250000D01*
X8890000Y-33250000D01*
X8550000Y-33720000D01*
G36*
X8550000Y-33720000D02*
G01*
X8210000Y-33250000D01*
X8890000Y-33250000D01*
X8550000Y-33720000D01*
G37*
%TO.C,TP5*%
X44950000Y-42000000D02*
G75*
G02*
X43050000Y-42000000I-950000J0D01*
G01*
X43050000Y-42000000D02*
G75*
G02*
X44950000Y-42000000I950000J0D01*
G01*
%TO.C,R15*%
X11777500Y-24237258D02*
X11777500Y-23762742D01*
X12822500Y-24237258D02*
X12822500Y-23762742D01*
%TO.C,TP3*%
X22150000Y-44000000D02*
G75*
G02*
X20250000Y-44000000I-950000J0D01*
G01*
X20250000Y-44000000D02*
G75*
G02*
X22150000Y-44000000I950000J0D01*
G01*
%TO.C,C11*%
X13359420Y-28290000D02*
X13640580Y-28290000D01*
X13359420Y-29310000D02*
X13640580Y-29310000D01*
%TO.C,C7*%
X23288748Y-38590000D02*
X24711252Y-38590000D01*
X23288748Y-40410000D02*
X24711252Y-40410000D01*
%TO.C,D2*%
X31300000Y-13960000D02*
X31300000Y-15325000D01*
X31300000Y-15325000D02*
X33110000Y-15325000D01*
X41700000Y-13960000D02*
X41700000Y-15325000D01*
X41700000Y-15325000D02*
X39890000Y-15325000D01*
X33150000Y-18150000D02*
X32680000Y-18490000D01*
X32680000Y-17810000D01*
X33150000Y-18150000D01*
G36*
X33150000Y-18150000D02*
G01*
X32680000Y-18490000D01*
X32680000Y-17810000D01*
X33150000Y-18150000D01*
G37*
%TO.C,R14*%
X16877500Y-24762742D02*
X16877500Y-25237258D01*
X17922500Y-24762742D02*
X17922500Y-25237258D01*
%TO.C,U4*%
X5150000Y-23090000D02*
X8910000Y-23090000D01*
X5150000Y-29910000D02*
X8910000Y-29910000D01*
X8910000Y-23090000D02*
X8910000Y-24350000D01*
X8910000Y-29910000D02*
X8910000Y-28650000D01*
X3870000Y-23190000D02*
X3630000Y-22860000D01*
X4110000Y-22860000D01*
X3870000Y-23190000D01*
G36*
X3870000Y-23190000D02*
G01*
X3630000Y-22860000D01*
X4110000Y-22860000D01*
X3870000Y-23190000D01*
G37*
%TO.C,C17*%
X4859420Y-43490000D02*
X5140580Y-43490000D01*
X4859420Y-44510000D02*
X5140580Y-44510000D01*
%TO.C,TP7*%
X54950000Y-48000000D02*
G75*
G02*
X53050000Y-48000000I-950000J0D01*
G01*
X53050000Y-48000000D02*
G75*
G02*
X54950000Y-48000000I950000J0D01*
G01*
%TO.C,C2*%
X55982918Y-40425000D02*
X57232918Y-40425000D01*
X56607918Y-39800000D02*
X56607918Y-41050000D01*
X62800000Y-37670000D02*
X62800000Y-50330000D01*
X62840000Y-37670000D02*
X62840000Y-50330000D01*
X62880000Y-37671000D02*
X62880000Y-50329000D01*
X62920000Y-37671000D02*
X62920000Y-50329000D01*
X62960000Y-37672000D02*
X62960000Y-50328000D01*
X63000000Y-37673000D02*
X63000000Y-50327000D01*
X63040000Y-37675000D02*
X63040000Y-50325000D01*
X63080000Y-37676000D02*
X63080000Y-50324000D01*
X63120000Y-37678000D02*
X63120000Y-50322000D01*
X63160000Y-37680000D02*
X63160000Y-50320000D01*
X63200000Y-37683000D02*
X63200000Y-50317000D01*
X63240000Y-37685000D02*
X63240000Y-50315000D01*
X63280000Y-37688000D02*
X63280000Y-50312000D01*
X63320000Y-37691000D02*
X63320000Y-50309000D01*
X63360000Y-37695000D02*
X63360000Y-50305000D01*
X63400000Y-37698000D02*
X63400000Y-50302000D01*
X63440000Y-37702000D02*
X63440000Y-50298000D01*
X63480000Y-37706000D02*
X63480000Y-50294000D01*
X63520000Y-37711000D02*
X63520000Y-50289000D01*
X63560000Y-37716000D02*
X63560000Y-50284000D01*
X63600000Y-37720000D02*
X63600000Y-50280000D01*
X63640000Y-37726000D02*
X63640000Y-50274000D01*
X63680000Y-37731000D02*
X63680000Y-50269000D01*
X63720000Y-37737000D02*
X63720000Y-50263000D01*
X63760000Y-37743000D02*
X63760000Y-50257000D01*
X63800000Y-37749000D02*
X63800000Y-50251000D01*
X63840000Y-37755000D02*
X63840000Y-50245000D01*
X63880000Y-37762000D02*
X63880000Y-42560000D01*
X63880000Y-45440000D02*
X63880000Y-50238000D01*
X63920000Y-37769000D02*
X63920000Y-42560000D01*
X63920000Y-45440000D02*
X63920000Y-50231000D01*
X63960000Y-37777000D02*
X63960000Y-42560000D01*
X63960000Y-45440000D02*
X63960000Y-50223000D01*
X64000000Y-37784000D02*
X64000000Y-42560000D01*
X64000000Y-45440000D02*
X64000000Y-50216000D01*
X64040000Y-37792000D02*
X64040000Y-42560000D01*
X64040000Y-45440000D02*
X64040000Y-50208000D01*
X64080000Y-37800000D02*
X64080000Y-42560000D01*
X64080000Y-45440000D02*
X64080000Y-50200000D01*
X64120000Y-37808000D02*
X64120000Y-42560000D01*
X64120000Y-45440000D02*
X64120000Y-50192000D01*
X64160000Y-37817000D02*
X64160000Y-42560000D01*
X64160000Y-45440000D02*
X64160000Y-50183000D01*
X64200000Y-37826000D02*
X64200000Y-42560000D01*
X64200000Y-45440000D02*
X64200000Y-50174000D01*
X64240000Y-37835000D02*
X64240000Y-42560000D01*
X64240000Y-45440000D02*
X64240000Y-50165000D01*
X64280000Y-37844000D02*
X64280000Y-42560000D01*
X64280000Y-45440000D02*
X64280000Y-50156000D01*
X64320000Y-37854000D02*
X64320000Y-42560000D01*
X64320000Y-45440000D02*
X64320000Y-50146000D01*
X64360000Y-37864000D02*
X64360000Y-42560000D01*
X64360000Y-45440000D02*
X64360000Y-50136000D01*
X64400000Y-37874000D02*
X64400000Y-42560000D01*
X64400000Y-45440000D02*
X64400000Y-50126000D01*
X64440000Y-37885000D02*
X64440000Y-42560000D01*
X64440000Y-45440000D02*
X64440000Y-50115000D01*
X64480000Y-37896000D02*
X64480000Y-42560000D01*
X64480000Y-45440000D02*
X64480000Y-50104000D01*
X64520000Y-37907000D02*
X64520000Y-42560000D01*
X64520000Y-45440000D02*
X64520000Y-50093000D01*
X64560000Y-37918000D02*
X64560000Y-42560000D01*
X64560000Y-45440000D02*
X64560000Y-50082000D01*
X64600000Y-37930000D02*
X64600000Y-42560000D01*
X64600000Y-45440000D02*
X64600000Y-50070000D01*
X64640000Y-37942000D02*
X64640000Y-42560000D01*
X64640000Y-45440000D02*
X64640000Y-50058000D01*
X64680000Y-37954000D02*
X64680000Y-42560000D01*
X64680000Y-45440000D02*
X64680000Y-50046000D01*
X64720000Y-37966000D02*
X64720000Y-42560000D01*
X64720000Y-45440000D02*
X64720000Y-50034000D01*
X64760000Y-37979000D02*
X64760000Y-42560000D01*
X64760000Y-45440000D02*
X64760000Y-50021000D01*
X64800000Y-37992000D02*
X64800000Y-42560000D01*
X64800000Y-45440000D02*
X64800000Y-50008000D01*
X64840000Y-38005000D02*
X64840000Y-42560000D01*
X64840000Y-45440000D02*
X64840000Y-49995000D01*
X64880000Y-38019000D02*
X64880000Y-42560000D01*
X64880000Y-45440000D02*
X64880000Y-49981000D01*
X64920000Y-38033000D02*
X64920000Y-42560000D01*
X64920000Y-45440000D02*
X64920000Y-49967000D01*
X64960000Y-38047000D02*
X64960000Y-42560000D01*
X64960000Y-45440000D02*
X64960000Y-49953000D01*
X65000000Y-38062000D02*
X65000000Y-42560000D01*
X65000000Y-45440000D02*
X65000000Y-49938000D01*
X65040000Y-38077000D02*
X65040000Y-42560000D01*
X65040000Y-45440000D02*
X65040000Y-49923000D01*
X65080000Y-38092000D02*
X65080000Y-42560000D01*
X65080000Y-45440000D02*
X65080000Y-49908000D01*
X65120000Y-38108000D02*
X65120000Y-42560000D01*
X65120000Y-45440000D02*
X65120000Y-49892000D01*
X65160000Y-38123000D02*
X65160000Y-42560000D01*
X65160000Y-45440000D02*
X65160000Y-49877000D01*
X65200000Y-38139000D02*
X65200000Y-42560000D01*
X65200000Y-45440000D02*
X65200000Y-49861000D01*
X65240000Y-38156000D02*
X65240000Y-42560000D01*
X65240000Y-45440000D02*
X65240000Y-49844000D01*
X65280000Y-38173000D02*
X65280000Y-42560000D01*
X65280000Y-45440000D02*
X65280000Y-49827000D01*
X65320000Y-38190000D02*
X65320000Y-42560000D01*
X65320000Y-45440000D02*
X65320000Y-49810000D01*
X65360000Y-38207000D02*
X65360000Y-42560000D01*
X65360000Y-45440000D02*
X65360000Y-49793000D01*
X65400000Y-38225000D02*
X65400000Y-42560000D01*
X65400000Y-45440000D02*
X65400000Y-49775000D01*
X65440000Y-38243000D02*
X65440000Y-42560000D01*
X65440000Y-45440000D02*
X65440000Y-49757000D01*
X65480000Y-38261000D02*
X65480000Y-42560000D01*
X65480000Y-45440000D02*
X65480000Y-49739000D01*
X65520000Y-38280000D02*
X65520000Y-42560000D01*
X65520000Y-45440000D02*
X65520000Y-49720000D01*
X65560000Y-38299000D02*
X65560000Y-42560000D01*
X65560000Y-45440000D02*
X65560000Y-49701000D01*
X65600000Y-38318000D02*
X65600000Y-42560000D01*
X65600000Y-45440000D02*
X65600000Y-49682000D01*
X65640000Y-38338000D02*
X65640000Y-42560000D01*
X65640000Y-45440000D02*
X65640000Y-49662000D01*
X65680000Y-38358000D02*
X65680000Y-42560000D01*
X65680000Y-45440000D02*
X65680000Y-49642000D01*
X65720000Y-38379000D02*
X65720000Y-42560000D01*
X65720000Y-45440000D02*
X65720000Y-49621000D01*
X65760000Y-38399000D02*
X65760000Y-42560000D01*
X65760000Y-45440000D02*
X65760000Y-49601000D01*
X65800000Y-38421000D02*
X65800000Y-42560000D01*
X65800000Y-45440000D02*
X65800000Y-49579000D01*
X65840000Y-38442000D02*
X65840000Y-42560000D01*
X65840000Y-45440000D02*
X65840000Y-49558000D01*
X65880000Y-38464000D02*
X65880000Y-42560000D01*
X65880000Y-45440000D02*
X65880000Y-49536000D01*
X65920000Y-38486000D02*
X65920000Y-42560000D01*
X65920000Y-45440000D02*
X65920000Y-49514000D01*
X65960000Y-38509000D02*
X65960000Y-42560000D01*
X65960000Y-45440000D02*
X65960000Y-49491000D01*
X66000000Y-38532000D02*
X66000000Y-42560000D01*
X66000000Y-45440000D02*
X66000000Y-49468000D01*
X66040000Y-38556000D02*
X66040000Y-42560000D01*
X66040000Y-45440000D02*
X66040000Y-49444000D01*
X66080000Y-38579000D02*
X66080000Y-42560000D01*
X66080000Y-45440000D02*
X66080000Y-49421000D01*
X66120000Y-38604000D02*
X66120000Y-42560000D01*
X66120000Y-45440000D02*
X66120000Y-49396000D01*
X66160000Y-38628000D02*
X66160000Y-42560000D01*
X66160000Y-45440000D02*
X66160000Y-49372000D01*
X66200000Y-38653000D02*
X66200000Y-42560000D01*
X66200000Y-45440000D02*
X66200000Y-49347000D01*
X66240000Y-38679000D02*
X66240000Y-42560000D01*
X66240000Y-45440000D02*
X66240000Y-49321000D01*
X66280000Y-38705000D02*
X66280000Y-42560000D01*
X66280000Y-45440000D02*
X66280000Y-49295000D01*
X66320000Y-38731000D02*
X66320000Y-42560000D01*
X66320000Y-45440000D02*
X66320000Y-49269000D01*
X66360000Y-38758000D02*
X66360000Y-42560000D01*
X66360000Y-45440000D02*
X66360000Y-49242000D01*
X66400000Y-38785000D02*
X66400000Y-42560000D01*
X66400000Y-45440000D02*
X66400000Y-49215000D01*
X66440000Y-38812000D02*
X66440000Y-42560000D01*
X66440000Y-45440000D02*
X66440000Y-49188000D01*
X66480000Y-38841000D02*
X66480000Y-42560000D01*
X66480000Y-45440000D02*
X66480000Y-49159000D01*
X66520000Y-38869000D02*
X66520000Y-42560000D01*
X66520000Y-45440000D02*
X66520000Y-49131000D01*
X66560000Y-38898000D02*
X66560000Y-42560000D01*
X66560000Y-45440000D02*
X66560000Y-49102000D01*
X66600000Y-38928000D02*
X66600000Y-42560000D01*
X66600000Y-45440000D02*
X66600000Y-49072000D01*
X66640000Y-38958000D02*
X66640000Y-42560000D01*
X66640000Y-45440000D02*
X66640000Y-49042000D01*
X66680000Y-38988000D02*
X66680000Y-42560000D01*
X66680000Y-45440000D02*
X66680000Y-49012000D01*
X66720000Y-39019000D02*
X66720000Y-42560000D01*
X66720000Y-45440000D02*
X66720000Y-48981000D01*
X66760000Y-39050000D02*
X66760000Y-48950000D01*
X66800000Y-39082000D02*
X66800000Y-48918000D01*
X66840000Y-39115000D02*
X66840000Y-48885000D01*
X66880000Y-39148000D02*
X66880000Y-48852000D01*
X66920000Y-39182000D02*
X66920000Y-48818000D01*
X66960000Y-39216000D02*
X66960000Y-48784000D01*
X67000000Y-39251000D02*
X67000000Y-48749000D01*
X67040000Y-39286000D02*
X67040000Y-48714000D01*
X67080000Y-39322000D02*
X67080000Y-48678000D01*
X67120000Y-39359000D02*
X67120000Y-48641000D01*
X67160000Y-39396000D02*
X67160000Y-48604000D01*
X67200000Y-39434000D02*
X67200000Y-48566000D01*
X67240000Y-39472000D02*
X67240000Y-48528000D01*
X67280000Y-39512000D02*
X67280000Y-48488000D01*
X67320000Y-39552000D02*
X67320000Y-48448000D01*
X67360000Y-39592000D02*
X67360000Y-48408000D01*
X67400000Y-39634000D02*
X67400000Y-48366000D01*
X67440000Y-39676000D02*
X67440000Y-48324000D01*
X67480000Y-39719000D02*
X67480000Y-48281000D01*
X67520000Y-39762000D02*
X67520000Y-48238000D01*
X67560000Y-39807000D02*
X67560000Y-48193000D01*
X67600000Y-39852000D02*
X67600000Y-48148000D01*
X67640000Y-39899000D02*
X67640000Y-48101000D01*
X67680000Y-39946000D02*
X67680000Y-48054000D01*
X67720000Y-39994000D02*
X67720000Y-48006000D01*
X67760000Y-40043000D02*
X67760000Y-47957000D01*
X67800000Y-40093000D02*
X67800000Y-47907000D01*
X67840000Y-40144000D02*
X67840000Y-47856000D01*
X67880000Y-40197000D02*
X67880000Y-47803000D01*
X67920000Y-40250000D02*
X67920000Y-47750000D01*
X67960000Y-40305000D02*
X67960000Y-47695000D01*
X68000000Y-40361000D02*
X68000000Y-47639000D01*
X68040000Y-40418000D02*
X68040000Y-47582000D01*
X68080000Y-40477000D02*
X68080000Y-47523000D01*
X68120000Y-40537000D02*
X68120000Y-47463000D01*
X68160000Y-40598000D02*
X68160000Y-47402000D01*
X68200000Y-40661000D02*
X68200000Y-47339000D01*
X68240000Y-40726000D02*
X68240000Y-47274000D01*
X68280000Y-40792000D02*
X68280000Y-47208000D01*
X68320000Y-40861000D02*
X68320000Y-47139000D01*
X68360000Y-40931000D02*
X68360000Y-47069000D01*
X68400000Y-41004000D02*
X68400000Y-46996000D01*
X68440000Y-41079000D02*
X68440000Y-46921000D01*
X68480000Y-41157000D02*
X68480000Y-46843000D01*
X68520000Y-41237000D02*
X68520000Y-46763000D01*
X68560000Y-41320000D02*
X68560000Y-46680000D01*
X68600000Y-41406000D02*
X68600000Y-46594000D01*
X68640000Y-41496000D02*
X68640000Y-46504000D01*
X68680000Y-41590000D02*
X68680000Y-46410000D01*
X68720000Y-41688000D02*
X68720000Y-46312000D01*
X68760000Y-41792000D02*
X68760000Y-46208000D01*
X68800000Y-41901000D02*
X68800000Y-46099000D01*
X68840000Y-42016000D02*
X68840000Y-45984000D01*
X68880000Y-42140000D02*
X68880000Y-45860000D01*
X68920000Y-42273000D02*
X68920000Y-45727000D01*
X68960000Y-42418000D02*
X68960000Y-45582000D01*
X69000000Y-42578000D02*
X69000000Y-45422000D01*
X69040000Y-42760000D02*
X69040000Y-45240000D01*
X69080000Y-42973000D02*
X69080000Y-45027000D01*
X69120000Y-43243000D02*
X69120000Y-44757000D01*
X69160000Y-43683000D02*
X69160000Y-44317000D01*
X69170000Y-44000000D02*
G75*
G02*
X56430000Y-44000000I-6370000J0D01*
G01*
X56430000Y-44000000D02*
G75*
G02*
X69170000Y-44000000I6370000J0D01*
G01*
%TO.C,U3*%
X11890000Y-18890000D02*
X15110000Y-18890000D01*
X11890000Y-19065000D02*
X11890000Y-18890000D01*
X11890000Y-22110000D02*
X11890000Y-21935000D01*
X15110000Y-18890000D02*
X15110000Y-19065000D01*
X15110000Y-21935000D02*
X15110000Y-22110000D01*
X15110000Y-22110000D02*
X11890000Y-22110000D01*
X11340000Y-19060000D02*
X11100000Y-18730000D01*
X11580000Y-18730000D01*
X11340000Y-19060000D01*
G36*
X11340000Y-19060000D02*
G01*
X11100000Y-18730000D01*
X11580000Y-18730000D01*
X11340000Y-19060000D01*
G37*
%TO.C,TH1*%
X12737258Y-12477500D02*
X12262742Y-12477500D01*
X12737258Y-13522500D02*
X12262742Y-13522500D01*
%TD*%
M02*
