M48
; DRILL file KiCad 10.0.5 date 2026-08-02T14:30:58
; FORMAT={-:-/ absolute / metric / decimal}
; #@! TF.CreationDate,2026-08-02T14:30:58-04:00
; #@! TF.GenerationSoftware,Kicad,Pcbnew,10.0.5
; #@! TF.FileFunction,MixedPlating,1,2
FMAT,2
METRIC
; #@! TA.AperFunction,Plated,PTH,ViaDrill
T1C0.300
; #@! TA.AperFunction,Plated,PTH,ViaDrill
T2C0.400
; #@! TA.AperFunction,Plated,PTH,ViaDrill
T3C0.500
; #@! TA.AperFunction,Plated,PTH,ComponentDrill
T4C1.000
; #@! TA.AperFunction,Plated,PTH,ComponentDrill
T5C1.150
; #@! TA.AperFunction,Plated,PTH,ComponentDrill
T6C1.200
; #@! TA.AperFunction,Plated,PTH,ComponentDrill
T7C3.750
; #@! TA.AperFunction,NonPlated,NPTH,ComponentDrill
T8C2.700
; #@! TA.AperFunction,NonPlated,NPTH,ComponentDrill
T9C3.200
%
G90
G05
T1
X5.5Y-34.0
X6.268Y-35.296
X6.4Y-21.275
X6.875Y-42.511
X7.085Y-33.431
X9.612Y-16.259
X10.377Y-13.172
X10.675Y-37.691
X11.5Y-14.0
X12.328Y-37.244
X12.4Y-13.0
X13.541Y-14.64
X13.588Y-16.233
X13.761Y-22.444
X14.103Y-9.572
X15.373Y-18.587
X15.4Y-15.5
X15.504Y-39.885
X22.876Y-42.375
X31.924Y-39.127
X35.869Y-41.05
X44.0Y-42.0
X49.909Y-36.601
T2
X3.513Y-37.324
X9.3Y-5.1
X12.3Y-23.175
X13.0Y-30.3
X14.095Y-34.607
X17.4Y-23.0
X20.562Y-37.816
X21.0Y-30.5
X27.8Y-32.095
X27.8Y-36.9
X29.275Y-42.0
X34.85Y-41.991
X54.879Y-38.855
X55.005Y-29.255
X55.005Y-33.255
T3
X17.0Y-9.0
X20.0Y-10.5
X27.0Y-26.5
X29.0Y-9.0
X31.0Y-21.5
X33.5Y-32.0
X36.5Y-22.0
X41.0Y-30.5
X41.5Y-21.5
X43.5Y-40.5
X44.5Y-9.0
X45.0Y-44.5
X51.5Y-32.0
X51.5Y-36.0
X51.5Y-40.0
X52.0Y-26.5
X52.5Y-46.0
X59.5Y-18.0
X59.5Y-25.0
X59.5Y-35.0
X59.5Y-48.0
X63.8Y-17.0
X64.0Y-29.5
X64.0Y-44.0
X66.5Y-17.0
X66.6Y-29.5
X66.6Y-44.0
X70.0Y-55.0
T4
X25.0Y-48.0
X27.54Y-48.0
X30.08Y-48.0
T5
X2.6Y-11.0
X2.6Y-15.5
T6
X60.3Y-29.5
X60.3Y-44.0
X65.3Y-29.5
X65.3Y-44.0
T7
X17.0Y-4.5
X25.0Y-4.5
X48.0Y-48.0
X50.5Y-4.5
T8
X4.0Y-4.0
X4.0Y-48.0
X35.0Y-48.0
X72.5Y-25.0
T9
X62.0Y-4.5
X70.0Y-4.5
M30
