%TF.GenerationSoftware,KiCad,Pcbnew,10.0.5*%
%TF.CreationDate,2026-08-01T15:42:34-04:00*%
%TF.ProjectId,blower-controller,626c6f77-6572-42d6-936f-6e74726f6c6c,rev?*%
%TF.SameCoordinates,Original*%
%TF.FileFunction,Legend,Top*%
%TF.FilePolarity,Positive*%
%FSLAX46Y46*%
G04 Gerber Fmt 4.6, Leading zero omitted, Abs format (unit mm)*
G04 Created by KiCad (PCBNEW 10.0.5) date 2026-08-01 15:42:34*
%MOMM*%
%LPD*%
G01*
G04 APERTURE LIST*
%ADD10C,0.250000*%
%ADD11C,0.150000*%
G04 APERTURE END LIST*
D10*
X49071428Y-22180928D02*
X48357142Y-22180928D01*
X48357142Y-22180928D02*
X48285714Y-22895214D01*
X48285714Y-22895214D02*
X48357142Y-22823785D01*
X48357142Y-22823785D02*
X48500000Y-22752357D01*
X48500000Y-22752357D02*
X48857142Y-22752357D01*
X48857142Y-22752357D02*
X49000000Y-22823785D01*
X49000000Y-22823785D02*
X49071428Y-22895214D01*
X49071428Y-22895214D02*
X49142857Y-23038071D01*
X49142857Y-23038071D02*
X49142857Y-23395214D01*
X49142857Y-23395214D02*
X49071428Y-23538071D01*
X49071428Y-23538071D02*
X49000000Y-23609500D01*
X49000000Y-23609500D02*
X48857142Y-23680928D01*
X48857142Y-23680928D02*
X48500000Y-23680928D01*
X48500000Y-23680928D02*
X48357142Y-23609500D01*
X48357142Y-23609500D02*
X48285714Y-23538071D01*
X49714285Y-23609500D02*
X49928571Y-23680928D01*
X49928571Y-23680928D02*
X50285713Y-23680928D01*
X50285713Y-23680928D02*
X50428571Y-23609500D01*
X50428571Y-23609500D02*
X50499999Y-23538071D01*
X50499999Y-23538071D02*
X50571428Y-23395214D01*
X50571428Y-23395214D02*
X50571428Y-23252357D01*
X50571428Y-23252357D02*
X50499999Y-23109500D01*
X50499999Y-23109500D02*
X50428571Y-23038071D01*
X50428571Y-23038071D02*
X50285713Y-22966642D01*
X50285713Y-22966642D02*
X49999999Y-22895214D01*
X49999999Y-22895214D02*
X49857142Y-22823785D01*
X49857142Y-22823785D02*
X49785713Y-22752357D01*
X49785713Y-22752357D02*
X49714285Y-22609500D01*
X49714285Y-22609500D02*
X49714285Y-22466642D01*
X49714285Y-22466642D02*
X49785713Y-22323785D01*
X49785713Y-22323785D02*
X49857142Y-22252357D01*
X49857142Y-22252357D02*
X49999999Y-22180928D01*
X49999999Y-22180928D02*
X50357142Y-22180928D01*
X50357142Y-22180928D02*
X50571428Y-22252357D01*
X52857141Y-22895214D02*
X53071427Y-22966642D01*
X53071427Y-22966642D02*
X53142856Y-23038071D01*
X53142856Y-23038071D02*
X53214284Y-23180928D01*
X53214284Y-23180928D02*
X53214284Y-23395214D01*
X53214284Y-23395214D02*
X53142856Y-23538071D01*
X53142856Y-23538071D02*
X53071427Y-23609500D01*
X53071427Y-23609500D02*
X52928570Y-23680928D01*
X52928570Y-23680928D02*
X52357141Y-23680928D01*
X52357141Y-23680928D02*
X52357141Y-22180928D01*
X52357141Y-22180928D02*
X52857141Y-22180928D01*
X52857141Y-22180928D02*
X52999999Y-22252357D01*
X52999999Y-22252357D02*
X53071427Y-22323785D01*
X53071427Y-22323785D02*
X53142856Y-22466642D01*
X53142856Y-22466642D02*
X53142856Y-22609500D01*
X53142856Y-22609500D02*
X53071427Y-22752357D01*
X53071427Y-22752357D02*
X52999999Y-22823785D01*
X52999999Y-22823785D02*
X52857141Y-22895214D01*
X52857141Y-22895214D02*
X52357141Y-22895214D01*
X54571427Y-23680928D02*
X53857141Y-23680928D01*
X53857141Y-23680928D02*
X53857141Y-22180928D01*
X55357142Y-22180928D02*
X55642856Y-22180928D01*
X55642856Y-22180928D02*
X55785713Y-22252357D01*
X55785713Y-22252357D02*
X55928570Y-22395214D01*
X55928570Y-22395214D02*
X55999999Y-22680928D01*
X55999999Y-22680928D02*
X55999999Y-23180928D01*
X55999999Y-23180928D02*
X55928570Y-23466642D01*
X55928570Y-23466642D02*
X55785713Y-23609500D01*
X55785713Y-23609500D02*
X55642856Y-23680928D01*
X55642856Y-23680928D02*
X55357142Y-23680928D01*
X55357142Y-23680928D02*
X55214285Y-23609500D01*
X55214285Y-23609500D02*
X55071427Y-23466642D01*
X55071427Y-23466642D02*
X54999999Y-23180928D01*
X54999999Y-23180928D02*
X54999999Y-22680928D01*
X54999999Y-22680928D02*
X55071427Y-22395214D01*
X55071427Y-22395214D02*
X55214285Y-22252357D01*
X55214285Y-22252357D02*
X55357142Y-22180928D01*
X56499999Y-22180928D02*
X56857142Y-23680928D01*
X56857142Y-23680928D02*
X57142856Y-22609500D01*
X57142856Y-22609500D02*
X57428571Y-23680928D01*
X57428571Y-23680928D02*
X57785714Y-22180928D01*
X58357142Y-22895214D02*
X58857142Y-22895214D01*
X59071428Y-23680928D02*
X58357142Y-23680928D01*
X58357142Y-23680928D02*
X58357142Y-22180928D01*
X58357142Y-22180928D02*
X59071428Y-22180928D01*
X60571428Y-23680928D02*
X60071428Y-22966642D01*
X59714285Y-23680928D02*
X59714285Y-22180928D01*
X59714285Y-22180928D02*
X60285714Y-22180928D01*
X60285714Y-22180928D02*
X60428571Y-22252357D01*
X60428571Y-22252357D02*
X60500000Y-22323785D01*
X60500000Y-22323785D02*
X60571428Y-22466642D01*
X60571428Y-22466642D02*
X60571428Y-22680928D01*
X60571428Y-22680928D02*
X60500000Y-22823785D01*
X60500000Y-22823785D02*
X60428571Y-22895214D01*
X60428571Y-22895214D02*
X60285714Y-22966642D01*
X60285714Y-22966642D02*
X59714285Y-22966642D01*
X63214285Y-23538071D02*
X63142857Y-23609500D01*
X63142857Y-23609500D02*
X62928571Y-23680928D01*
X62928571Y-23680928D02*
X62785714Y-23680928D01*
X62785714Y-23680928D02*
X62571428Y-23609500D01*
X62571428Y-23609500D02*
X62428571Y-23466642D01*
X62428571Y-23466642D02*
X62357142Y-23323785D01*
X62357142Y-23323785D02*
X62285714Y-23038071D01*
X62285714Y-23038071D02*
X62285714Y-22823785D01*
X62285714Y-22823785D02*
X62357142Y-22538071D01*
X62357142Y-22538071D02*
X62428571Y-22395214D01*
X62428571Y-22395214D02*
X62571428Y-22252357D01*
X62571428Y-22252357D02*
X62785714Y-22180928D01*
X62785714Y-22180928D02*
X62928571Y-22180928D01*
X62928571Y-22180928D02*
X63142857Y-22252357D01*
X63142857Y-22252357D02*
X63214285Y-22323785D01*
X63642857Y-22180928D02*
X64500000Y-22180928D01*
X64071428Y-23680928D02*
X64071428Y-22180928D01*
X65857142Y-23680928D02*
X65357142Y-22966642D01*
X64999999Y-23680928D02*
X64999999Y-22180928D01*
X64999999Y-22180928D02*
X65571428Y-22180928D01*
X65571428Y-22180928D02*
X65714285Y-22252357D01*
X65714285Y-22252357D02*
X65785714Y-22323785D01*
X65785714Y-22323785D02*
X65857142Y-22466642D01*
X65857142Y-22466642D02*
X65857142Y-22680928D01*
X65857142Y-22680928D02*
X65785714Y-22823785D01*
X65785714Y-22823785D02*
X65714285Y-22895214D01*
X65714285Y-22895214D02*
X65571428Y-22966642D01*
X65571428Y-22966642D02*
X64999999Y-22966642D01*
X67214285Y-23680928D02*
X66499999Y-23680928D01*
X66499999Y-23680928D02*
X66499999Y-22180928D01*
X68857142Y-23109500D02*
X70000000Y-23109500D01*
X72714285Y-23680928D02*
X72214285Y-22966642D01*
X71857142Y-23680928D02*
X71857142Y-22180928D01*
X71857142Y-22180928D02*
X72428571Y-22180928D01*
X72428571Y-22180928D02*
X72571428Y-22252357D01*
X72571428Y-22252357D02*
X72642857Y-22323785D01*
X72642857Y-22323785D02*
X72714285Y-22466642D01*
X72714285Y-22466642D02*
X72714285Y-22680928D01*
X72714285Y-22680928D02*
X72642857Y-22823785D01*
X72642857Y-22823785D02*
X72571428Y-22895214D01*
X72571428Y-22895214D02*
X72428571Y-22966642D01*
X72428571Y-22966642D02*
X71857142Y-22966642D01*
X73357142Y-22895214D02*
X73857142Y-22895214D01*
X74071428Y-23680928D02*
X73357142Y-23680928D01*
X73357142Y-23680928D02*
X73357142Y-22180928D01*
X73357142Y-22180928D02*
X74071428Y-22180928D01*
X75214285Y-22895214D02*
X74714285Y-22895214D01*
X74714285Y-23680928D02*
X74714285Y-22180928D01*
X74714285Y-22180928D02*
X75428571Y-22180928D01*
X75999999Y-22895214D02*
X76499999Y-22895214D01*
X76714285Y-23680928D02*
X75999999Y-23680928D01*
X75999999Y-23680928D02*
X75999999Y-22180928D01*
X75999999Y-22180928D02*
X76714285Y-22180928D01*
X78214285Y-23680928D02*
X77714285Y-22966642D01*
X77357142Y-23680928D02*
X77357142Y-22180928D01*
X77357142Y-22180928D02*
X77928571Y-22180928D01*
X77928571Y-22180928D02*
X78071428Y-22252357D01*
X78071428Y-22252357D02*
X78142857Y-22323785D01*
X78142857Y-22323785D02*
X78214285Y-22466642D01*
X78214285Y-22466642D02*
X78214285Y-22680928D01*
X78214285Y-22680928D02*
X78142857Y-22823785D01*
X78142857Y-22823785D02*
X78071428Y-22895214D01*
X78071428Y-22895214D02*
X77928571Y-22966642D01*
X77928571Y-22966642D02*
X77357142Y-22966642D01*
X78857142Y-22895214D02*
X79357142Y-22895214D01*
X79571428Y-23680928D02*
X78857142Y-23680928D01*
X78857142Y-23680928D02*
X78857142Y-22180928D01*
X78857142Y-22180928D02*
X79571428Y-22180928D01*
X80214285Y-23680928D02*
X80214285Y-22180928D01*
X80214285Y-22180928D02*
X81071428Y-23680928D01*
X81071428Y-23680928D02*
X81071428Y-22180928D01*
X82642857Y-23538071D02*
X82571429Y-23609500D01*
X82571429Y-23609500D02*
X82357143Y-23680928D01*
X82357143Y-23680928D02*
X82214286Y-23680928D01*
X82214286Y-23680928D02*
X82000000Y-23609500D01*
X82000000Y-23609500D02*
X81857143Y-23466642D01*
X81857143Y-23466642D02*
X81785714Y-23323785D01*
X81785714Y-23323785D02*
X81714286Y-23038071D01*
X81714286Y-23038071D02*
X81714286Y-22823785D01*
X81714286Y-22823785D02*
X81785714Y-22538071D01*
X81785714Y-22538071D02*
X81857143Y-22395214D01*
X81857143Y-22395214D02*
X82000000Y-22252357D01*
X82000000Y-22252357D02*
X82214286Y-22180928D01*
X82214286Y-22180928D02*
X82357143Y-22180928D01*
X82357143Y-22180928D02*
X82571429Y-22252357D01*
X82571429Y-22252357D02*
X82642857Y-22323785D01*
X83285714Y-22895214D02*
X83785714Y-22895214D01*
X84000000Y-23680928D02*
X83285714Y-23680928D01*
X83285714Y-23680928D02*
X83285714Y-22180928D01*
X83285714Y-22180928D02*
X84000000Y-22180928D01*
X86642857Y-23680928D02*
X86142857Y-22966642D01*
X85785714Y-23680928D02*
X85785714Y-22180928D01*
X85785714Y-22180928D02*
X86357143Y-22180928D01*
X86357143Y-22180928D02*
X86500000Y-22252357D01*
X86500000Y-22252357D02*
X86571429Y-22323785D01*
X86571429Y-22323785D02*
X86642857Y-22466642D01*
X86642857Y-22466642D02*
X86642857Y-22680928D01*
X86642857Y-22680928D02*
X86571429Y-22823785D01*
X86571429Y-22823785D02*
X86500000Y-22895214D01*
X86500000Y-22895214D02*
X86357143Y-22966642D01*
X86357143Y-22966642D02*
X85785714Y-22966642D01*
X87285714Y-22895214D02*
X87785714Y-22895214D01*
X88000000Y-23680928D02*
X87285714Y-23680928D01*
X87285714Y-23680928D02*
X87285714Y-22180928D01*
X87285714Y-22180928D02*
X88000000Y-22180928D01*
X88428572Y-22180928D02*
X88928572Y-23680928D01*
X88928572Y-23680928D02*
X89428572Y-22180928D01*
X91000000Y-23252357D02*
X91714286Y-23252357D01*
X90857143Y-23680928D02*
X91357143Y-22180928D01*
X91357143Y-22180928D02*
X91857143Y-23680928D01*
D11*
X59714285Y-76931009D02*
X59857142Y-76978628D01*
X59857142Y-76978628D02*
X59904761Y-77026247D01*
X59904761Y-77026247D02*
X59952380Y-77121485D01*
X59952380Y-77121485D02*
X59952380Y-77264342D01*
X59952380Y-77264342D02*
X59904761Y-77359580D01*
X59904761Y-77359580D02*
X59857142Y-77407200D01*
X59857142Y-77407200D02*
X59761904Y-77454819D01*
X59761904Y-77454819D02*
X59380952Y-77454819D01*
X59380952Y-77454819D02*
X59380952Y-76454819D01*
X59380952Y-76454819D02*
X59714285Y-76454819D01*
X59714285Y-76454819D02*
X59809523Y-76502438D01*
X59809523Y-76502438D02*
X59857142Y-76550057D01*
X59857142Y-76550057D02*
X59904761Y-76645295D01*
X59904761Y-76645295D02*
X59904761Y-76740533D01*
X59904761Y-76740533D02*
X59857142Y-76835771D01*
X59857142Y-76835771D02*
X59809523Y-76883390D01*
X59809523Y-76883390D02*
X59714285Y-76931009D01*
X59714285Y-76931009D02*
X59380952Y-76931009D01*
X60380952Y-77073866D02*
X61142857Y-77073866D01*
X60761904Y-77454819D02*
X60761904Y-76692914D01*
X63476190Y-76931009D02*
X63619047Y-76978628D01*
X63619047Y-76978628D02*
X63666666Y-77026247D01*
X63666666Y-77026247D02*
X63714285Y-77121485D01*
X63714285Y-77121485D02*
X63714285Y-77264342D01*
X63714285Y-77264342D02*
X63666666Y-77359580D01*
X63666666Y-77359580D02*
X63619047Y-77407200D01*
X63619047Y-77407200D02*
X63523809Y-77454819D01*
X63523809Y-77454819D02*
X63142857Y-77454819D01*
X63142857Y-77454819D02*
X63142857Y-76454819D01*
X63142857Y-76454819D02*
X63476190Y-76454819D01*
X63476190Y-76454819D02*
X63571428Y-76502438D01*
X63571428Y-76502438D02*
X63619047Y-76550057D01*
X63619047Y-76550057D02*
X63666666Y-76645295D01*
X63666666Y-76645295D02*
X63666666Y-76740533D01*
X63666666Y-76740533D02*
X63619047Y-76835771D01*
X63619047Y-76835771D02*
X63571428Y-76883390D01*
X63571428Y-76883390D02*
X63476190Y-76931009D01*
X63476190Y-76931009D02*
X63142857Y-76931009D01*
X64142857Y-77073866D02*
X64904762Y-77073866D01*
X67666667Y-77454819D02*
X67666667Y-76454819D01*
X67666667Y-76454819D02*
X68000000Y-77169104D01*
X68000000Y-77169104D02*
X68333333Y-76454819D01*
X68333333Y-76454819D02*
X68333333Y-77454819D01*
X69000000Y-76454819D02*
X69190476Y-76454819D01*
X69190476Y-76454819D02*
X69285714Y-76502438D01*
X69285714Y-76502438D02*
X69380952Y-76597676D01*
X69380952Y-76597676D02*
X69428571Y-76788152D01*
X69428571Y-76788152D02*
X69428571Y-77121485D01*
X69428571Y-77121485D02*
X69380952Y-77311961D01*
X69380952Y-77311961D02*
X69285714Y-77407200D01*
X69285714Y-77407200D02*
X69190476Y-77454819D01*
X69190476Y-77454819D02*
X69000000Y-77454819D01*
X69000000Y-77454819D02*
X68904762Y-77407200D01*
X68904762Y-77407200D02*
X68809524Y-77311961D01*
X68809524Y-77311961D02*
X68761905Y-77121485D01*
X68761905Y-77121485D02*
X68761905Y-76788152D01*
X68761905Y-76788152D02*
X68809524Y-76597676D01*
X68809524Y-76597676D02*
X68904762Y-76502438D01*
X68904762Y-76502438D02*
X69000000Y-76454819D01*
X69714286Y-76454819D02*
X70285714Y-76454819D01*
X70000000Y-77454819D02*
X70000000Y-76454819D01*
X70809524Y-76454819D02*
X71000000Y-76454819D01*
X71000000Y-76454819D02*
X71095238Y-76502438D01*
X71095238Y-76502438D02*
X71190476Y-76597676D01*
X71190476Y-76597676D02*
X71238095Y-76788152D01*
X71238095Y-76788152D02*
X71238095Y-77121485D01*
X71238095Y-77121485D02*
X71190476Y-77311961D01*
X71190476Y-77311961D02*
X71095238Y-77407200D01*
X71095238Y-77407200D02*
X71000000Y-77454819D01*
X71000000Y-77454819D02*
X70809524Y-77454819D01*
X70809524Y-77454819D02*
X70714286Y-77407200D01*
X70714286Y-77407200D02*
X70619048Y-77311961D01*
X70619048Y-77311961D02*
X70571429Y-77121485D01*
X70571429Y-77121485D02*
X70571429Y-76788152D01*
X70571429Y-76788152D02*
X70619048Y-76597676D01*
X70619048Y-76597676D02*
X70714286Y-76502438D01*
X70714286Y-76502438D02*
X70809524Y-76454819D01*
X72238095Y-77454819D02*
X71904762Y-76978628D01*
X71666667Y-77454819D02*
X71666667Y-76454819D01*
X71666667Y-76454819D02*
X72047619Y-76454819D01*
X72047619Y-76454819D02*
X72142857Y-76502438D01*
X72142857Y-76502438D02*
X72190476Y-76550057D01*
X72190476Y-76550057D02*
X72238095Y-76645295D01*
X72238095Y-76645295D02*
X72238095Y-76788152D01*
X72238095Y-76788152D02*
X72190476Y-76883390D01*
X72190476Y-76883390D02*
X72142857Y-76931009D01*
X72142857Y-76931009D02*
X72047619Y-76978628D01*
X72047619Y-76978628D02*
X71666667Y-76978628D01*
X74809525Y-76454819D02*
X75380953Y-76454819D01*
X75095239Y-77454819D02*
X75095239Y-76454819D01*
X76285715Y-77454819D02*
X75952382Y-76978628D01*
X75714287Y-77454819D02*
X75714287Y-76454819D01*
X75714287Y-76454819D02*
X76095239Y-76454819D01*
X76095239Y-76454819D02*
X76190477Y-76502438D01*
X76190477Y-76502438D02*
X76238096Y-76550057D01*
X76238096Y-76550057D02*
X76285715Y-76645295D01*
X76285715Y-76645295D02*
X76285715Y-76788152D01*
X76285715Y-76788152D02*
X76238096Y-76883390D01*
X76238096Y-76883390D02*
X76190477Y-76931009D01*
X76190477Y-76931009D02*
X76095239Y-76978628D01*
X76095239Y-76978628D02*
X75714287Y-76978628D01*
X76714287Y-77454819D02*
X76714287Y-76454819D01*
X77714286Y-76502438D02*
X77619048Y-76454819D01*
X77619048Y-76454819D02*
X77476191Y-76454819D01*
X77476191Y-76454819D02*
X77333334Y-76502438D01*
X77333334Y-76502438D02*
X77238096Y-76597676D01*
X77238096Y-76597676D02*
X77190477Y-76692914D01*
X77190477Y-76692914D02*
X77142858Y-76883390D01*
X77142858Y-76883390D02*
X77142858Y-77026247D01*
X77142858Y-77026247D02*
X77190477Y-77216723D01*
X77190477Y-77216723D02*
X77238096Y-77311961D01*
X77238096Y-77311961D02*
X77333334Y-77407200D01*
X77333334Y-77407200D02*
X77476191Y-77454819D01*
X77476191Y-77454819D02*
X77571429Y-77454819D01*
X77571429Y-77454819D02*
X77714286Y-77407200D01*
X77714286Y-77407200D02*
X77761905Y-77359580D01*
X77761905Y-77359580D02*
X77761905Y-77026247D01*
X77761905Y-77026247D02*
X77571429Y-77026247D01*
X78714286Y-76502438D02*
X78619048Y-76454819D01*
X78619048Y-76454819D02*
X78476191Y-76454819D01*
X78476191Y-76454819D02*
X78333334Y-76502438D01*
X78333334Y-76502438D02*
X78238096Y-76597676D01*
X78238096Y-76597676D02*
X78190477Y-76692914D01*
X78190477Y-76692914D02*
X78142858Y-76883390D01*
X78142858Y-76883390D02*
X78142858Y-77026247D01*
X78142858Y-77026247D02*
X78190477Y-77216723D01*
X78190477Y-77216723D02*
X78238096Y-77311961D01*
X78238096Y-77311961D02*
X78333334Y-77407200D01*
X78333334Y-77407200D02*
X78476191Y-77454819D01*
X78476191Y-77454819D02*
X78571429Y-77454819D01*
X78571429Y-77454819D02*
X78714286Y-77407200D01*
X78714286Y-77407200D02*
X78761905Y-77359580D01*
X78761905Y-77359580D02*
X78761905Y-77026247D01*
X78761905Y-77026247D02*
X78571429Y-77026247D01*
X79190477Y-76931009D02*
X79523810Y-76931009D01*
X79666667Y-77454819D02*
X79190477Y-77454819D01*
X79190477Y-77454819D02*
X79190477Y-76454819D01*
X79190477Y-76454819D02*
X79666667Y-76454819D01*
X80666667Y-77454819D02*
X80333334Y-76978628D01*
X80095239Y-77454819D02*
X80095239Y-76454819D01*
X80095239Y-76454819D02*
X80476191Y-76454819D01*
X80476191Y-76454819D02*
X80571429Y-76502438D01*
X80571429Y-76502438D02*
X80619048Y-76550057D01*
X80619048Y-76550057D02*
X80666667Y-76645295D01*
X80666667Y-76645295D02*
X80666667Y-76788152D01*
X80666667Y-76788152D02*
X80619048Y-76883390D01*
X80619048Y-76883390D02*
X80571429Y-76931009D01*
X80571429Y-76931009D02*
X80476191Y-76978628D01*
X80476191Y-76978628D02*
X80095239Y-76978628D01*
X24666666Y-26454819D02*
X24666666Y-27169104D01*
X24666666Y-27169104D02*
X24619047Y-27311961D01*
X24619047Y-27311961D02*
X24523809Y-27407200D01*
X24523809Y-27407200D02*
X24380952Y-27454819D01*
X24380952Y-27454819D02*
X24285714Y-27454819D01*
X25666666Y-27454819D02*
X25095238Y-27454819D01*
X25380952Y-27454819D02*
X25380952Y-26454819D01*
X25380952Y-26454819D02*
X25285714Y-26597676D01*
X25285714Y-26597676D02*
X25190476Y-26692914D01*
X25190476Y-26692914D02*
X25095238Y-26740533D01*
X34666666Y-26931009D02*
X34333333Y-26931009D01*
X34333333Y-27454819D02*
X34333333Y-26454819D01*
X34333333Y-26454819D02*
X34809523Y-26454819D01*
X35714285Y-27454819D02*
X35142857Y-27454819D01*
X35428571Y-27454819D02*
X35428571Y-26454819D01*
X35428571Y-26454819D02*
X35333333Y-26597676D01*
X35333333Y-26597676D02*
X35238095Y-26692914D01*
X35238095Y-26692914D02*
X35142857Y-26740533D01*
X52261905Y-27454819D02*
X52261905Y-26454819D01*
X52261905Y-26454819D02*
X52500000Y-26454819D01*
X52500000Y-26454819D02*
X52642857Y-26502438D01*
X52642857Y-26502438D02*
X52738095Y-26597676D01*
X52738095Y-26597676D02*
X52785714Y-26692914D01*
X52785714Y-26692914D02*
X52833333Y-26883390D01*
X52833333Y-26883390D02*
X52833333Y-27026247D01*
X52833333Y-27026247D02*
X52785714Y-27216723D01*
X52785714Y-27216723D02*
X52738095Y-27311961D01*
X52738095Y-27311961D02*
X52642857Y-27407200D01*
X52642857Y-27407200D02*
X52500000Y-27454819D01*
X52500000Y-27454819D02*
X52261905Y-27454819D01*
X53785714Y-27454819D02*
X53214286Y-27454819D01*
X53500000Y-27454819D02*
X53500000Y-26454819D01*
X53500000Y-26454819D02*
X53404762Y-26597676D01*
X53404762Y-26597676D02*
X53309524Y-26692914D01*
X53309524Y-26692914D02*
X53214286Y-26740533D01*
X61833333Y-27359580D02*
X61785714Y-27407200D01*
X61785714Y-27407200D02*
X61642857Y-27454819D01*
X61642857Y-27454819D02*
X61547619Y-27454819D01*
X61547619Y-27454819D02*
X61404762Y-27407200D01*
X61404762Y-27407200D02*
X61309524Y-27311961D01*
X61309524Y-27311961D02*
X61261905Y-27216723D01*
X61261905Y-27216723D02*
X61214286Y-27026247D01*
X61214286Y-27026247D02*
X61214286Y-26883390D01*
X61214286Y-26883390D02*
X61261905Y-26692914D01*
X61261905Y-26692914D02*
X61309524Y-26597676D01*
X61309524Y-26597676D02*
X61404762Y-26502438D01*
X61404762Y-26502438D02*
X61547619Y-26454819D01*
X61547619Y-26454819D02*
X61642857Y-26454819D01*
X61642857Y-26454819D02*
X61785714Y-26502438D01*
X61785714Y-26502438D02*
X61833333Y-26550057D01*
X62785714Y-27454819D02*
X62214286Y-27454819D01*
X62500000Y-27454819D02*
X62500000Y-26454819D01*
X62500000Y-26454819D02*
X62404762Y-26597676D01*
X62404762Y-26597676D02*
X62309524Y-26692914D01*
X62309524Y-26692914D02*
X62214286Y-26740533D01*
X114666666Y-30454819D02*
X114666666Y-31169104D01*
X114666666Y-31169104D02*
X114619047Y-31311961D01*
X114619047Y-31311961D02*
X114523809Y-31407200D01*
X114523809Y-31407200D02*
X114380952Y-31454819D01*
X114380952Y-31454819D02*
X114285714Y-31454819D01*
X115095238Y-30550057D02*
X115142857Y-30502438D01*
X115142857Y-30502438D02*
X115238095Y-30454819D01*
X115238095Y-30454819D02*
X115476190Y-30454819D01*
X115476190Y-30454819D02*
X115571428Y-30502438D01*
X115571428Y-30502438D02*
X115619047Y-30550057D01*
X115619047Y-30550057D02*
X115666666Y-30645295D01*
X115666666Y-30645295D02*
X115666666Y-30740533D01*
X115666666Y-30740533D02*
X115619047Y-30883390D01*
X115619047Y-30883390D02*
X115047619Y-31454819D01*
X115047619Y-31454819D02*
X115666666Y-31454819D01*
X97261905Y-31454819D02*
X97261905Y-30454819D01*
X97261905Y-30454819D02*
X97500000Y-30454819D01*
X97500000Y-30454819D02*
X97642857Y-30502438D01*
X97642857Y-30502438D02*
X97738095Y-30597676D01*
X97738095Y-30597676D02*
X97785714Y-30692914D01*
X97785714Y-30692914D02*
X97833333Y-30883390D01*
X97833333Y-30883390D02*
X97833333Y-31026247D01*
X97833333Y-31026247D02*
X97785714Y-31216723D01*
X97785714Y-31216723D02*
X97738095Y-31311961D01*
X97738095Y-31311961D02*
X97642857Y-31407200D01*
X97642857Y-31407200D02*
X97500000Y-31454819D01*
X97500000Y-31454819D02*
X97261905Y-31454819D01*
X98214286Y-30550057D02*
X98261905Y-30502438D01*
X98261905Y-30502438D02*
X98357143Y-30454819D01*
X98357143Y-30454819D02*
X98595238Y-30454819D01*
X98595238Y-30454819D02*
X98690476Y-30502438D01*
X98690476Y-30502438D02*
X98738095Y-30550057D01*
X98738095Y-30550057D02*
X98785714Y-30645295D01*
X98785714Y-30645295D02*
X98785714Y-30740533D01*
X98785714Y-30740533D02*
X98738095Y-30883390D01*
X98738095Y-30883390D02*
X98166667Y-31454819D01*
X98166667Y-31454819D02*
X98785714Y-31454819D01*
X77904761Y-47550057D02*
X77809523Y-47502438D01*
X77809523Y-47502438D02*
X77714285Y-47407200D01*
X77714285Y-47407200D02*
X77571428Y-47264342D01*
X77571428Y-47264342D02*
X77476190Y-47216723D01*
X77476190Y-47216723D02*
X77380952Y-47216723D01*
X77428571Y-47454819D02*
X77333333Y-47407200D01*
X77333333Y-47407200D02*
X77238095Y-47311961D01*
X77238095Y-47311961D02*
X77190476Y-47121485D01*
X77190476Y-47121485D02*
X77190476Y-46788152D01*
X77190476Y-46788152D02*
X77238095Y-46597676D01*
X77238095Y-46597676D02*
X77333333Y-46502438D01*
X77333333Y-46502438D02*
X77428571Y-46454819D01*
X77428571Y-46454819D02*
X77619047Y-46454819D01*
X77619047Y-46454819D02*
X77714285Y-46502438D01*
X77714285Y-46502438D02*
X77809523Y-46597676D01*
X77809523Y-46597676D02*
X77857142Y-46788152D01*
X77857142Y-46788152D02*
X77857142Y-47121485D01*
X77857142Y-47121485D02*
X77809523Y-47311961D01*
X77809523Y-47311961D02*
X77714285Y-47407200D01*
X77714285Y-47407200D02*
X77619047Y-47454819D01*
X77619047Y-47454819D02*
X77428571Y-47454819D01*
X78809523Y-47454819D02*
X78238095Y-47454819D01*
X78523809Y-47454819D02*
X78523809Y-46454819D01*
X78523809Y-46454819D02*
X78428571Y-46597676D01*
X78428571Y-46597676D02*
X78333333Y-46692914D01*
X78333333Y-46692914D02*
X78238095Y-46740533D01*
X77904761Y-59550057D02*
X77809523Y-59502438D01*
X77809523Y-59502438D02*
X77714285Y-59407200D01*
X77714285Y-59407200D02*
X77571428Y-59264342D01*
X77571428Y-59264342D02*
X77476190Y-59216723D01*
X77476190Y-59216723D02*
X77380952Y-59216723D01*
X77428571Y-59454819D02*
X77333333Y-59407200D01*
X77333333Y-59407200D02*
X77238095Y-59311961D01*
X77238095Y-59311961D02*
X77190476Y-59121485D01*
X77190476Y-59121485D02*
X77190476Y-58788152D01*
X77190476Y-58788152D02*
X77238095Y-58597676D01*
X77238095Y-58597676D02*
X77333333Y-58502438D01*
X77333333Y-58502438D02*
X77428571Y-58454819D01*
X77428571Y-58454819D02*
X77619047Y-58454819D01*
X77619047Y-58454819D02*
X77714285Y-58502438D01*
X77714285Y-58502438D02*
X77809523Y-58597676D01*
X77809523Y-58597676D02*
X77857142Y-58788152D01*
X77857142Y-58788152D02*
X77857142Y-59121485D01*
X77857142Y-59121485D02*
X77809523Y-59311961D01*
X77809523Y-59311961D02*
X77714285Y-59407200D01*
X77714285Y-59407200D02*
X77619047Y-59454819D01*
X77619047Y-59454819D02*
X77428571Y-59454819D01*
X78238095Y-58550057D02*
X78285714Y-58502438D01*
X78285714Y-58502438D02*
X78380952Y-58454819D01*
X78380952Y-58454819D02*
X78619047Y-58454819D01*
X78619047Y-58454819D02*
X78714285Y-58502438D01*
X78714285Y-58502438D02*
X78761904Y-58550057D01*
X78761904Y-58550057D02*
X78809523Y-58645295D01*
X78809523Y-58645295D02*
X78809523Y-58740533D01*
X78809523Y-58740533D02*
X78761904Y-58883390D01*
X78761904Y-58883390D02*
X78190476Y-59454819D01*
X78190476Y-59454819D02*
X78809523Y-59454819D01*
X85357142Y-67454819D02*
X85023809Y-66978628D01*
X84785714Y-67454819D02*
X84785714Y-66454819D01*
X84785714Y-66454819D02*
X85166666Y-66454819D01*
X85166666Y-66454819D02*
X85261904Y-66502438D01*
X85261904Y-66502438D02*
X85309523Y-66550057D01*
X85309523Y-66550057D02*
X85357142Y-66645295D01*
X85357142Y-66645295D02*
X85357142Y-66788152D01*
X85357142Y-66788152D02*
X85309523Y-66883390D01*
X85309523Y-66883390D02*
X85261904Y-66931009D01*
X85261904Y-66931009D02*
X85166666Y-66978628D01*
X85166666Y-66978628D02*
X84785714Y-66978628D01*
X85738095Y-67407200D02*
X85880952Y-67454819D01*
X85880952Y-67454819D02*
X86119047Y-67454819D01*
X86119047Y-67454819D02*
X86214285Y-67407200D01*
X86214285Y-67407200D02*
X86261904Y-67359580D01*
X86261904Y-67359580D02*
X86309523Y-67264342D01*
X86309523Y-67264342D02*
X86309523Y-67169104D01*
X86309523Y-67169104D02*
X86261904Y-67073866D01*
X86261904Y-67073866D02*
X86214285Y-67026247D01*
X86214285Y-67026247D02*
X86119047Y-66978628D01*
X86119047Y-66978628D02*
X85928571Y-66931009D01*
X85928571Y-66931009D02*
X85833333Y-66883390D01*
X85833333Y-66883390D02*
X85785714Y-66835771D01*
X85785714Y-66835771D02*
X85738095Y-66740533D01*
X85738095Y-66740533D02*
X85738095Y-66645295D01*
X85738095Y-66645295D02*
X85785714Y-66550057D01*
X85785714Y-66550057D02*
X85833333Y-66502438D01*
X85833333Y-66502438D02*
X85928571Y-66454819D01*
X85928571Y-66454819D02*
X86166666Y-66454819D01*
X86166666Y-66454819D02*
X86309523Y-66502438D01*
X87261904Y-67454819D02*
X86690476Y-67454819D01*
X86976190Y-67454819D02*
X86976190Y-66454819D01*
X86976190Y-66454819D02*
X86880952Y-66597676D01*
X86880952Y-66597676D02*
X86785714Y-66692914D01*
X86785714Y-66692914D02*
X86690476Y-66740533D01*
X51238095Y-48454819D02*
X51238095Y-49264342D01*
X51238095Y-49264342D02*
X51285714Y-49359580D01*
X51285714Y-49359580D02*
X51333333Y-49407200D01*
X51333333Y-49407200D02*
X51428571Y-49454819D01*
X51428571Y-49454819D02*
X51619047Y-49454819D01*
X51619047Y-49454819D02*
X51714285Y-49407200D01*
X51714285Y-49407200D02*
X51761904Y-49359580D01*
X51761904Y-49359580D02*
X51809523Y-49264342D01*
X51809523Y-49264342D02*
X51809523Y-48454819D01*
X52809523Y-49454819D02*
X52238095Y-49454819D01*
X52523809Y-49454819D02*
X52523809Y-48454819D01*
X52523809Y-48454819D02*
X52428571Y-48597676D01*
X52428571Y-48597676D02*
X52333333Y-48692914D01*
X52333333Y-48692914D02*
X52238095Y-48740533D01*
X35238095Y-49454819D02*
X35238095Y-50264342D01*
X35238095Y-50264342D02*
X35285714Y-50359580D01*
X35285714Y-50359580D02*
X35333333Y-50407200D01*
X35333333Y-50407200D02*
X35428571Y-50454819D01*
X35428571Y-50454819D02*
X35619047Y-50454819D01*
X35619047Y-50454819D02*
X35714285Y-50407200D01*
X35714285Y-50407200D02*
X35761904Y-50359580D01*
X35761904Y-50359580D02*
X35809523Y-50264342D01*
X35809523Y-50264342D02*
X35809523Y-49454819D01*
X36238095Y-49550057D02*
X36285714Y-49502438D01*
X36285714Y-49502438D02*
X36380952Y-49454819D01*
X36380952Y-49454819D02*
X36619047Y-49454819D01*
X36619047Y-49454819D02*
X36714285Y-49502438D01*
X36714285Y-49502438D02*
X36761904Y-49550057D01*
X36761904Y-49550057D02*
X36809523Y-49645295D01*
X36809523Y-49645295D02*
X36809523Y-49740533D01*
X36809523Y-49740533D02*
X36761904Y-49883390D01*
X36761904Y-49883390D02*
X36190476Y-50454819D01*
X36190476Y-50454819D02*
X36809523Y-50454819D01*
X24666666Y-66454819D02*
X24666666Y-67169104D01*
X24666666Y-67169104D02*
X24619047Y-67311961D01*
X24619047Y-67311961D02*
X24523809Y-67407200D01*
X24523809Y-67407200D02*
X24380952Y-67454819D01*
X24380952Y-67454819D02*
X24285714Y-67454819D01*
X25047619Y-66454819D02*
X25666666Y-66454819D01*
X25666666Y-66454819D02*
X25333333Y-66835771D01*
X25333333Y-66835771D02*
X25476190Y-66835771D01*
X25476190Y-66835771D02*
X25571428Y-66883390D01*
X25571428Y-66883390D02*
X25619047Y-66931009D01*
X25619047Y-66931009D02*
X25666666Y-67026247D01*
X25666666Y-67026247D02*
X25666666Y-67264342D01*
X25666666Y-67264342D02*
X25619047Y-67359580D01*
X25619047Y-67359580D02*
X25571428Y-67407200D01*
X25571428Y-67407200D02*
X25476190Y-67454819D01*
X25476190Y-67454819D02*
X25190476Y-67454819D01*
X25190476Y-67454819D02*
X25095238Y-67407200D01*
X25095238Y-67407200D02*
X25047619Y-67359580D01*
X43833333Y-35454819D02*
X43500000Y-34978628D01*
X43261905Y-35454819D02*
X43261905Y-34454819D01*
X43261905Y-34454819D02*
X43642857Y-34454819D01*
X43642857Y-34454819D02*
X43738095Y-34502438D01*
X43738095Y-34502438D02*
X43785714Y-34550057D01*
X43785714Y-34550057D02*
X43833333Y-34645295D01*
X43833333Y-34645295D02*
X43833333Y-34788152D01*
X43833333Y-34788152D02*
X43785714Y-34883390D01*
X43785714Y-34883390D02*
X43738095Y-34931009D01*
X43738095Y-34931009D02*
X43642857Y-34978628D01*
X43642857Y-34978628D02*
X43261905Y-34978628D01*
X44785714Y-35454819D02*
X44214286Y-35454819D01*
X44500000Y-35454819D02*
X44500000Y-34454819D01*
X44500000Y-34454819D02*
X44404762Y-34597676D01*
X44404762Y-34597676D02*
X44309524Y-34692914D01*
X44309524Y-34692914D02*
X44214286Y-34740533D01*
X51833333Y-35454819D02*
X51500000Y-34978628D01*
X51261905Y-35454819D02*
X51261905Y-34454819D01*
X51261905Y-34454819D02*
X51642857Y-34454819D01*
X51642857Y-34454819D02*
X51738095Y-34502438D01*
X51738095Y-34502438D02*
X51785714Y-34550057D01*
X51785714Y-34550057D02*
X51833333Y-34645295D01*
X51833333Y-34645295D02*
X51833333Y-34788152D01*
X51833333Y-34788152D02*
X51785714Y-34883390D01*
X51785714Y-34883390D02*
X51738095Y-34931009D01*
X51738095Y-34931009D02*
X51642857Y-34978628D01*
X51642857Y-34978628D02*
X51261905Y-34978628D01*
X52214286Y-34550057D02*
X52261905Y-34502438D01*
X52261905Y-34502438D02*
X52357143Y-34454819D01*
X52357143Y-34454819D02*
X52595238Y-34454819D01*
X52595238Y-34454819D02*
X52690476Y-34502438D01*
X52690476Y-34502438D02*
X52738095Y-34550057D01*
X52738095Y-34550057D02*
X52785714Y-34645295D01*
X52785714Y-34645295D02*
X52785714Y-34740533D01*
X52785714Y-34740533D02*
X52738095Y-34883390D01*
X52738095Y-34883390D02*
X52166667Y-35454819D01*
X52166667Y-35454819D02*
X52785714Y-35454819D01*
X60833333Y-45454819D02*
X60500000Y-44978628D01*
X60261905Y-45454819D02*
X60261905Y-44454819D01*
X60261905Y-44454819D02*
X60642857Y-44454819D01*
X60642857Y-44454819D02*
X60738095Y-44502438D01*
X60738095Y-44502438D02*
X60785714Y-44550057D01*
X60785714Y-44550057D02*
X60833333Y-44645295D01*
X60833333Y-44645295D02*
X60833333Y-44788152D01*
X60833333Y-44788152D02*
X60785714Y-44883390D01*
X60785714Y-44883390D02*
X60738095Y-44931009D01*
X60738095Y-44931009D02*
X60642857Y-44978628D01*
X60642857Y-44978628D02*
X60261905Y-44978628D01*
X61166667Y-44454819D02*
X61785714Y-44454819D01*
X61785714Y-44454819D02*
X61452381Y-44835771D01*
X61452381Y-44835771D02*
X61595238Y-44835771D01*
X61595238Y-44835771D02*
X61690476Y-44883390D01*
X61690476Y-44883390D02*
X61738095Y-44931009D01*
X61738095Y-44931009D02*
X61785714Y-45026247D01*
X61785714Y-45026247D02*
X61785714Y-45264342D01*
X61785714Y-45264342D02*
X61738095Y-45359580D01*
X61738095Y-45359580D02*
X61690476Y-45407200D01*
X61690476Y-45407200D02*
X61595238Y-45454819D01*
X61595238Y-45454819D02*
X61309524Y-45454819D01*
X61309524Y-45454819D02*
X61214286Y-45407200D01*
X61214286Y-45407200D02*
X61166667Y-45359580D01*
X43833333Y-41454819D02*
X43500000Y-40978628D01*
X43261905Y-41454819D02*
X43261905Y-40454819D01*
X43261905Y-40454819D02*
X43642857Y-40454819D01*
X43642857Y-40454819D02*
X43738095Y-40502438D01*
X43738095Y-40502438D02*
X43785714Y-40550057D01*
X43785714Y-40550057D02*
X43833333Y-40645295D01*
X43833333Y-40645295D02*
X43833333Y-40788152D01*
X43833333Y-40788152D02*
X43785714Y-40883390D01*
X43785714Y-40883390D02*
X43738095Y-40931009D01*
X43738095Y-40931009D02*
X43642857Y-40978628D01*
X43642857Y-40978628D02*
X43261905Y-40978628D01*
X44690476Y-40788152D02*
X44690476Y-41454819D01*
X44452381Y-40407200D02*
X44214286Y-41121485D01*
X44214286Y-41121485D02*
X44833333Y-41121485D01*
X34714286Y-66454819D02*
X35285714Y-66454819D01*
X35000000Y-67454819D02*
X35000000Y-66454819D01*
X35619048Y-67454819D02*
X35619048Y-66454819D01*
X35619048Y-66931009D02*
X36190476Y-66931009D01*
X36190476Y-67454819D02*
X36190476Y-66454819D01*
X37190476Y-67454819D02*
X36619048Y-67454819D01*
X36904762Y-67454819D02*
X36904762Y-66454819D01*
X36904762Y-66454819D02*
X36809524Y-66597676D01*
X36809524Y-66597676D02*
X36714286Y-66692914D01*
X36714286Y-66692914D02*
X36619048Y-66740533D01*
X59666666Y-66454819D02*
X59666666Y-67169104D01*
X59666666Y-67169104D02*
X59619047Y-67311961D01*
X59619047Y-67311961D02*
X59523809Y-67407200D01*
X59523809Y-67407200D02*
X59380952Y-67454819D01*
X59380952Y-67454819D02*
X59285714Y-67454819D01*
X60571428Y-66788152D02*
X60571428Y-67454819D01*
X60333333Y-66407200D02*
X60095238Y-67121485D01*
X60095238Y-67121485D02*
X60714285Y-67121485D01*
%TO.C,J1*%
D10*
X22000000Y-28000000D02*
X28000000Y-28000000D01*
X28000000Y-32000000D01*
X22000000Y-32000000D01*
X22000000Y-28000000D01*
%TO.C,F1*%
X32000000Y-28000000D02*
X38000000Y-28000000D01*
X38000000Y-32000000D01*
X32000000Y-32000000D01*
X32000000Y-28000000D01*
%TO.C,D1*%
X50000000Y-28000000D02*
X56000000Y-28000000D01*
X56000000Y-32000000D01*
X50000000Y-32000000D01*
X50000000Y-28000000D01*
%TO.C,C1*%
X59000000Y-28000000D02*
X65000000Y-28000000D01*
X65000000Y-32000000D01*
X59000000Y-32000000D01*
X59000000Y-28000000D01*
%TO.C,J2*%
X112000000Y-32000000D02*
X118000000Y-32000000D01*
X118000000Y-36000000D01*
X112000000Y-36000000D01*
X112000000Y-32000000D01*
%TO.C,D2*%
X95000000Y-32000000D02*
X101000000Y-32000000D01*
X101000000Y-36000000D01*
X95000000Y-36000000D01*
X95000000Y-32000000D01*
%TO.C,Q1*%
X75000000Y-48000000D02*
X81000000Y-48000000D01*
X81000000Y-52000000D01*
X75000000Y-52000000D01*
X75000000Y-48000000D01*
%TO.C,Q2*%
X75000000Y-60000000D02*
X81000000Y-60000000D01*
X81000000Y-64000000D01*
X75000000Y-64000000D01*
X75000000Y-60000000D01*
%TO.C,RS1*%
X83000000Y-68000000D02*
X89000000Y-68000000D01*
X89000000Y-72000000D01*
X83000000Y-72000000D01*
X83000000Y-68000000D01*
%TO.C,U1*%
X49000000Y-50000000D02*
X55000000Y-50000000D01*
X55000000Y-54000000D01*
X49000000Y-54000000D01*
X49000000Y-50000000D01*
%TO.C,U2*%
X33000000Y-51000000D02*
X39000000Y-51000000D01*
X39000000Y-55000000D01*
X33000000Y-55000000D01*
X33000000Y-51000000D01*
%TO.C,J3*%
X22000000Y-68000000D02*
X28000000Y-68000000D01*
X28000000Y-72000000D01*
X22000000Y-72000000D01*
X22000000Y-68000000D01*
%TO.C,R1*%
X41000000Y-36000000D02*
X47000000Y-36000000D01*
X47000000Y-40000000D01*
X41000000Y-40000000D01*
X41000000Y-36000000D01*
%TO.C,R2*%
X49000000Y-36000000D02*
X55000000Y-36000000D01*
X55000000Y-40000000D01*
X49000000Y-40000000D01*
X49000000Y-36000000D01*
%TO.C,R3*%
X58000000Y-46000000D02*
X64000000Y-46000000D01*
X64000000Y-50000000D01*
X58000000Y-50000000D01*
X58000000Y-46000000D01*
%TO.C,R4*%
X41000000Y-42000000D02*
X47000000Y-42000000D01*
X47000000Y-46000000D01*
X41000000Y-46000000D01*
X41000000Y-42000000D01*
%TO.C,TH1*%
X33000000Y-68000000D02*
X39000000Y-68000000D01*
X39000000Y-72000000D01*
X33000000Y-72000000D01*
X33000000Y-68000000D01*
%TO.C,J4*%
X57000000Y-68000000D02*
X63000000Y-68000000D01*
X63000000Y-72000000D01*
X57000000Y-72000000D01*
X57000000Y-68000000D01*
%TD*%
M02*
