%TF.GenerationSoftware,KiCad,Pcbnew,10.0.5*%
%TF.CreationDate,2026-08-01T15:42:34-04:00*%
%TF.ProjectId,blower-controller,626c6f77-6572-42d6-936f-6e74726f6c6c,rev?*%
%TF.SameCoordinates,Original*%
%TF.FileFunction,Copper,L1,Top*%
%TF.FilePolarity,Positive*%
%FSLAX46Y46*%
G04 Gerber Fmt 4.6, Leading zero omitted, Abs format (unit mm)*
G04 Created by KiCad (PCBNEW 10.0.5) date 2026-08-01 15:42:34*
%MOMM*%
%LPD*%
G01*
G04 APERTURE LIST*
%TA.AperFunction,ComponentPad*%
%ADD10R,3.200000X3.200000*%
%TD*%
%TA.AperFunction,ComponentPad*%
%ADD11C,3.200000*%
%TD*%
%TA.AperFunction,SMDPad,CuDef*%
%ADD12R,2.200000X2.200000*%
%TD*%
%TA.AperFunction,SMDPad,CuDef*%
%ADD13C,2.200000*%
%TD*%
%TA.AperFunction,Conductor*%
%ADD14C,3.000000*%
%TD*%
%TA.AperFunction,Conductor*%
%ADD15C,1.000000*%
%TD*%
%TA.AperFunction,Conductor*%
%ADD16C,0.300000*%
%TD*%
%TA.AperFunction,Conductor*%
%ADD17C,0.500000*%
%TD*%
G04 APERTURE END LIST*
D10*
%TO.P,J1,1*%
%TO.N,BATT+*%
X25000000Y-30000000D03*
D11*
%TO.P,J1,2*%
%TO.N,GND*%
X25000000Y-37620000D03*
%TD*%
D10*
%TO.P,F1,1*%
%TO.N,BATT+*%
X35000000Y-30000000D03*
D11*
%TO.P,F1,2*%
%TO.N,VIN_PROTECTED*%
X47000000Y-30000000D03*
%TD*%
D10*
%TO.P,D1,1*%
%TO.N,VIN_PROTECTED*%
X53000000Y-30000000D03*
D11*
%TO.P,D1,2*%
%TO.N,GND*%
X53000000Y-37620000D03*
%TD*%
D10*
%TO.P,C1,1*%
%TO.N,VIN_PROTECTED*%
X62000000Y-30000000D03*
D11*
%TO.P,C1,2*%
%TO.N,GND*%
X62000000Y-37620000D03*
%TD*%
D10*
%TO.P,J2,1*%
%TO.N,MOTOR+*%
X115000000Y-34000000D03*
D11*
%TO.P,J2,2*%
%TO.N,SW_NODE*%
X115000000Y-41620000D03*
%TD*%
D10*
%TO.P,D2,1*%
%TO.N,MOTOR+*%
X98000000Y-34000000D03*
D11*
%TO.P,D2,2*%
%TO.N,SW_NODE*%
X98000000Y-41620000D03*
%TD*%
D10*
%TO.P,Q1,1*%
%TO.N,GATE*%
X75460000Y-50000000D03*
D11*
%TO.P,Q1,2*%
%TO.N,SW_NODE*%
X78000000Y-50000000D03*
%TO.P,Q1,3*%
%TO.N,GND*%
X80540000Y-50000000D03*
%TD*%
D10*
%TO.P,Q2,1*%
%TO.N,GATE*%
X75460000Y-62000000D03*
D11*
%TO.P,Q2,2*%
%TO.N,SW_NODE*%
X78000000Y-62000000D03*
%TO.P,Q2,3*%
%TO.N,GND*%
X80540000Y-62000000D03*
%TD*%
D12*
%TO.P,RS1,1*%
%TO.N,SW_NODE*%
X83000000Y-70000000D03*
D13*
%TO.P,RS1,2*%
%TO.N,SENSE*%
X89000000Y-70000000D03*
%TD*%
D12*
%TO.P,U1,1*%
%TO.N,PWM*%
X49000000Y-50000000D03*
D13*
%TO.P,U1,2*%
%TO.N,+5V*%
X51000000Y-50000000D03*
%TO.P,U1,3*%
%TO.N,GND*%
X53000000Y-50000000D03*
%TO.P,U1,4*%
%TO.N,GATE*%
X55000000Y-50000000D03*
%TO.P,U1,5*%
X55000000Y-54000000D03*
%TO.P,U1,6*%
%TO.N,GND*%
X53000000Y-54000000D03*
%TO.P,U1,7*%
%TO.N,+5V*%
X51000000Y-54000000D03*
%TO.P,U1,8*%
%TO.N,GND*%
X49000000Y-54000000D03*
%TD*%
D12*
%TO.P,U2,1*%
%TO.N,+5V*%
X33000000Y-51000000D03*
D13*
%TO.P,U2,2*%
%TO.N,GND*%
X35000000Y-51000000D03*
%TO.P,U2,3*%
%TO.N,TRIGGER*%
X37000000Y-51000000D03*
%TO.P,U2,4*%
%TO.N,CURRENT*%
X39000000Y-51000000D03*
%TO.P,U2,5*%
%TO.N,NTC*%
X39000000Y-55000000D03*
%TO.P,U2,6*%
%TO.N,V_SENSE*%
X37000000Y-55000000D03*
%TO.P,U2,7*%
%TO.N,PWM*%
X35000000Y-55000000D03*
%TO.P,U2,8*%
%TO.N,GND*%
X33000000Y-55000000D03*
%TD*%
D10*
%TO.P,J3,1*%
%TO.N,TRIGGER*%
X25000000Y-70000000D03*
D11*
%TO.P,J3,2*%
%TO.N,GND*%
X25000000Y-77620000D03*
%TD*%
D12*
%TO.P,R1,1*%
%TO.N,VIN_PROTECTED*%
X42000000Y-38000000D03*
D13*
%TO.P,R1,2*%
%TO.N,V_SENSE*%
X46000000Y-38000000D03*
%TD*%
D12*
%TO.P,R2,1*%
%TO.N,V_SENSE*%
X50000000Y-38000000D03*
D13*
%TO.P,R2,2*%
%TO.N,GND*%
X54000000Y-38000000D03*
%TD*%
D12*
%TO.P,R3,1*%
%TO.N,GATE*%
X59000000Y-48000000D03*
D13*
%TO.P,R3,2*%
X63000000Y-48000000D03*
%TD*%
D12*
%TO.P,R4,1*%
%TO.N,+5V*%
X42000000Y-44000000D03*
D13*
%TO.P,R4,2*%
%TO.N,NTC*%
X46000000Y-44000000D03*
%TD*%
D10*
%TO.P,TH1,1*%
%TO.N,NTC*%
X36000000Y-70000000D03*
D11*
%TO.P,TH1,2*%
%TO.N,GND*%
X36000000Y-77620000D03*
%TD*%
D10*
%TO.P,J4,1*%
%TO.N,+5V*%
X60000000Y-70000000D03*
D11*
%TO.P,J4,2*%
%TO.N,PWM*%
X60000000Y-72540000D03*
%TO.P,J4,3*%
%TO.N,GND*%
X60000000Y-75080000D03*
%TD*%
%TO.N,BATT+*%
D14*
X25000000Y-30000000D02*
X35000000Y-30000000D01*
%TO.N,VIN_PROTECTED*%
X47000000Y-30000000D02*
X53000000Y-30000000D01*
X53000000Y-30000000D02*
X62000000Y-30000000D01*
%TO.N,MOTOR+*%
X62000000Y-30000000D02*
X115000000Y-34000000D01*
X98000000Y-34000000D02*
X115000000Y-34000000D01*
%TO.N,GND*%
D15*
X80540000Y-50000000D02*
X80540000Y-62000000D01*
X80540000Y-62000000D02*
X80540000Y-70000000D01*
%TO.N,PWM*%
D16*
X36000000Y-51000000D02*
X49000000Y-50000000D01*
%TO.N,GATE*%
D17*
X55000000Y-50000000D02*
X75460000Y-50000000D01*
X75460000Y-50000000D02*
X75460000Y-62000000D01*
%TO.N,TRIGGER*%
D16*
X33000000Y-51000000D02*
X25000000Y-70000000D01*
%TO.N,CURRENT*%
X39000000Y-51000000D02*
X45000000Y-38000000D01*
%TO.N,NTC*%
X39000000Y-55000000D02*
X44000000Y-44000000D01*
%TO.N,V_SENSE*%
X37000000Y-55000000D02*
X50000000Y-38000000D01*
%TO.N,VIN_PROTECTED*%
X42000000Y-38000000D02*
X44000000Y-38000000D01*
%TO.N,V_SENSE*%
X46000000Y-38000000D02*
X50000000Y-38000000D01*
X50000000Y-38000000D02*
X54000000Y-38000000D01*
%TO.N,NTC*%
X42000000Y-44000000D02*
X46000000Y-44000000D01*
X44000000Y-44000000D02*
X39000000Y-55000000D01*
%TO.N,GATE*%
X59000000Y-48000000D02*
X63000000Y-48000000D01*
%TO.N,PWM*%
X49000000Y-50000000D02*
X59000000Y-48000000D01*
%TO.N,GND*%
X49000000Y-54000000D02*
X49000000Y-70000000D01*
X49000000Y-70000000D02*
X60000000Y-75080000D01*
%TO.N,+5V*%
X49000000Y-54000000D02*
X49000000Y-54000000D01*
X51000000Y-50000000D02*
X51000000Y-50000000D01*
%TD*%
M02*
