M48
; DRILL file KiCad 10.0.5 date 2026-08-01T15:42:34
; FORMAT={-:-/ absolute / metric / decimal}
; #@! TF.CreationDate,2026-08-01T15:42:34-04:00
; #@! TF.GenerationSoftware,Kicad,Pcbnew,10.0.5
; #@! TF.FileFunction,MixedPlating,1,2
FMAT,2
METRIC
; #@! TA.AperFunction,Plated,PTH,ComponentDrill
T1C1.300
%
G90
G05
T1
X25.0Y-30.0
X25.0Y-37.62
X25.0Y-70.0
X25.0Y-77.62
X35.0Y-30.0
X36.0Y-70.0
X36.0Y-77.62
X47.0Y-30.0
X53.0Y-30.0
X53.0Y-37.62
X60.0Y-70.0
X60.0Y-72.54
X60.0Y-75.08
X62.0Y-30.0
X62.0Y-37.62
X75.46Y-50.0
X75.46Y-62.0
X78.0Y-50.0
X78.0Y-62.0
X80.54Y-50.0
X80.54Y-62.0
X98.0Y-34.0
X98.0Y-41.62
X115.0Y-34.0
X115.0Y-41.62
M30
